<svg width="29" height="29" viewBox="0 0 29 29" fill="none" xmlns="http://www.w3.org/2000/svg">
<g id="solar:temperature-broken">
<g id="Group">
<path id="Vector" d="M17.615 7.50004V6.33337C17.615 5.40512 17.2463 4.51488 16.5899 3.8585C15.9335 3.20212 15.0433 2.83337 14.115 2.83337C13.1867 2.83337 12.2965 3.20212 11.6401 3.8585C10.9838 4.51488 10.615 5.40512 10.615 6.33337V13.7394C10.615 14.1337 10.4108 14.4954 10.1028 14.7427C9.06535 15.5738 8.31158 16.7065 7.94566 17.9844C7.57974 19.2624 7.61974 20.6224 8.06014 21.8766C8.50053 23.1309 9.31958 24.2173 10.4041 24.986C11.4886 25.7546 12.7851 26.1675 14.1144 26.1675C15.4437 26.1675 16.7402 25.7546 17.8247 24.986C18.9093 24.2173 19.7283 23.1309 20.1687 21.8766C20.6091 20.6224 20.6491 19.2624 20.2832 17.9844C19.9173 16.7065 19.1635 15.5738 18.126 14.7427C17.8192 14.4954 17.615 14.1337 17.615 13.7394V12.1667" stroke="white" stroke-width="1.5" stroke-linecap="round"/>
<path id="Vector_2" d="M17.0316 19.75C17.0316 20.5236 16.7243 21.2655 16.1773 21.8124C15.6303 22.3594 14.8885 22.6667 14.1149 22.6667C13.3414 22.6667 12.5995 22.3594 12.0525 21.8124C11.5055 21.2655 11.1982 20.5236 11.1982 19.75C11.1982 18.9765 11.5055 18.2346 12.0525 17.6876C12.5995 17.1407 13.3414 16.8334 14.1149 16.8334C14.8885 16.8334 15.6303 17.1407 16.1773 17.6876C16.7243 18.2346 17.0316 18.9765 17.0316 19.75Z" stroke="white" stroke-width="1.5"/>
<path id="Vector_3" d="M14.1152 16.8334V14.5M14.1152 6.33337V9.83337" stroke="white" stroke-width="1.5" stroke-linecap="round"/>
</g>
</g>
</svg>
