<svg width="28" height="29" viewBox="0 0 28 29" fill="none" xmlns="http://www.w3.org/2000/svg">
<g id="solar:heart-pulse-broken">
<g id="Group">
<path id="Vector" d="M20.5417 15.377H19.6072C18.6389 15.377 18.1547 15.377 17.7534 15.6045C17.3521 15.8308 17.1036 16.2461 16.6054 17.0756L16.5704 17.1363C16.1061 17.9098 15.8739 18.296 15.5367 18.2901C15.1996 18.2843 14.9814 17.8888 14.5462 17.0978L12.5781 13.5196C12.1732 12.7823 11.9714 12.4136 11.6471 12.3961C11.3239 12.3786 11.0824 12.7228 10.6006 13.4111L10.2704 13.8836C9.75708 14.6151 9.50158 14.9803 9.12241 15.1786C8.74208 15.377 8.29525 15.377 7.40275 15.377H6.54175" stroke="white" stroke-width="1.5" stroke-linecap="round"/>
<path id="Vector_2" d="M14.532 6.84159C14.4498 6.75604 14.367 6.67211 14.2838 6.58979C16.7145 4.56387 19.337 4.05835 21.477 4.87188C23.8061 5.75785 25.4274 8.1562 25.5727 11.5368H24.8221C24.6787 8.39669 23.1842 6.3236 21.2093 5.57282C19.3996 4.88456 17.0681 5.26407 14.8076 7.12807L14.532 6.84159ZM24.8105 12.5368H25.5632C25.3973 14.6146 24.225 16.6877 22.7263 18.5443C21.2204 20.4089 19.349 22.1011 17.7098 23.4227L17.2453 22.8336C18.8604 21.5319 20.6852 19.8792 22.1429 18.0734L22.1429 18.0734C23.595 16.2742 24.6449 14.3689 24.8105 12.5368ZM3.44566 15.9177L2.80899 16.3138C2.10641 15.093 1.62231 13.8172 1.52013 12.5368H2.27287C2.37317 13.6465 2.79818 14.7863 3.44566 15.9177ZM12.5513 6.84158L12.276 7.12785L5.87367 5.57294C3.89895 6.32382 2.40458 8.39686 2.26127 11.5368H1.51065C1.65603 8.15712 3.27736 5.75776 5.60643 4.87185L5.60652 4.87182C7.74616 4.05747 10.3694 4.56438 12.7995 6.58979C12.7163 6.67211 12.6336 6.75604 12.5513 6.84158ZM6.63434 21.0133L7.16488 20.4817C8.02062 21.3053 8.9124 22.0899 9.83756 22.8343L9.3727 23.4237C8.42391 22.6617 7.5102 21.8578 6.63434 21.0133ZM10.1574 24.0436L10.6223 23.4541C11.692 24.2901 12.3187 24.7288 13.0417 24.8603V25.6182C12.0504 25.4783 11.2697 24.9156 10.1574 24.0436ZM14.0417 25.6182V24.8604C14.7652 24.7289 15.3914 24.2902 16.4611 23.4541L16.9259 24.0436C15.8136 24.9156 15.033 25.4783 14.0417 25.6182Z" fill="black" stroke="white"/>
</g>
</g>
</svg>
