<svg width="29" height="29" viewBox="0 0 29 29" fill="none" xmlns="http://www.w3.org/2000/svg">
<g id="material-symbols:motion-blur-rounded">
<path id="Vector" d="M9.44873 20.3333C9.11818 20.3333 8.84129 20.2213 8.61807 19.9973C8.39485 19.7733 8.28285 19.4964 8.28207 19.1666C8.28129 18.8368 8.39329 18.56 8.61807 18.336C8.84285 18.112 9.11973 18 9.44873 18H15.2821C15.0098 17.6694 14.7913 17.3097 14.6264 16.9208C14.4615 16.5319 14.3301 16.1138 14.2321 15.6666H11.7821C11.4515 15.6666 11.1746 15.5546 10.9514 15.3306C10.7282 15.1066 10.6162 14.8297 10.6154 14.5C10.6146 14.1702 10.7266 13.8933 10.9514 13.6693C11.1762 13.4453 11.4531 13.3333 11.7821 13.3333H14.2321C14.3293 12.8861 14.4607 12.468 14.6264 12.0791C14.7921 11.6902 15.0106 11.3305 15.2821 11H4.78207C4.45151 11 4.17462 10.888 3.9514 10.664C3.72818 10.44 3.61618 10.1631 3.6154 9.83329C3.61462 9.50351 3.72662 9.22663 3.9514 9.00263C4.17618 8.77863 4.45307 8.66663 4.78207 8.66663H19.9487C21.5626 8.66663 22.9385 9.23557 24.0764 10.3735C25.2143 11.5113 25.7828 12.8868 25.7821 14.5C25.7813 16.1131 25.2123 17.489 24.0752 18.6276C22.9381 19.7663 21.5626 20.3348 19.9487 20.3333H9.44873ZM19.9487 18C20.921 18 21.7473 17.6597 22.4279 16.9791C23.1085 16.2986 23.4487 15.4722 23.4487 14.5C23.4487 13.5277 23.1085 12.7013 22.4279 12.0208C21.7473 11.3402 20.921 11 19.9487 11C18.9765 11 18.1501 11.3402 17.4696 12.0208C16.789 12.7013 16.4487 13.5277 16.4487 14.5C16.4487 15.4722 16.789 16.2986 17.4696 16.9791C18.1501 17.6597 18.9765 18 19.9487 18ZM3.6154 15.6666C3.28485 15.6666 3.00796 15.5546 2.78473 15.3306C2.56151 15.1066 2.44951 14.8297 2.44873 14.5C2.44796 14.1702 2.55996 13.8933 2.78473 13.6693C3.00951 13.4453 3.2864 13.3333 3.6154 13.3333H8.28207C8.61262 13.3333 8.8899 13.4453 9.1139 13.6693C9.3379 13.8933 9.44951 14.1702 9.44873 14.5C9.44796 14.8297 9.33596 15.107 9.11273 15.3318C8.88951 15.5566 8.61262 15.6682 8.28207 15.6666H3.6154ZM4.78207 20.3333C4.45151 20.3333 4.17462 20.2213 3.9514 19.9973C3.72818 19.7733 3.61618 19.4964 3.6154 19.1666C3.61462 18.8368 3.72662 18.56 3.9514 18.336C4.17618 18.112 4.45307 18 4.78207 18H5.94873C6.27929 18 6.55657 18.112 6.78057 18.336C7.00457 18.56 7.11618 18.8368 7.1154 19.1666C7.11462 19.4964 7.00262 19.7737 6.7794 19.9985C6.55618 20.2232 6.27929 20.3348 5.94873 20.3333H4.78207Z" fill="white"/>
</g>
</svg>
