<svg width="28" height="29" viewBox="0 0 28 29" fill="none" xmlns="http://www.w3.org/2000/svg">
<g id="material-symbols-light:ecg-outline">
<path id="Vector" d="M3.5 11.1354V8.21521C3.5 7.6801 3.68006 7.23287 4.04017 6.87354C4.40028 6.51421 4.84828 6.33415 5.38417 6.33337H22.6158C23.1525 6.33337 23.6005 6.51343 23.9598 6.87354C24.3192 7.23365 24.4992 7.68204 24.5 8.21871V14.5H23.3333V8.21871C23.3333 8.03904 23.2587 7.87415 23.1093 7.72404C22.96 7.57393 22.7955 7.49926 22.6158 7.50004H5.38417C5.20528 7.50004 5.04078 7.57471 4.89067 7.72404C4.74056 7.87337 4.66589 8.03826 4.66667 8.21871V11.1354H3.5ZM5.38533 22.6667C4.84789 22.6667 4.3995 22.487 4.04017 22.1277C3.68083 21.7684 3.50078 21.3208 3.5 20.7849V17.8659H4.66667V20.7825C4.66667 20.9614 4.74133 21.1259 4.89067 21.276C5.04 21.4262 5.2045 21.5008 5.38417 21.5H12.8112V22.6667H5.38533ZM21 25.763L19.7143 24.6722C18.0934 23.2738 17.0574 22.3015 16.6063 21.7555C16.1552 21.2088 15.9297 20.6604 15.9297 20.1105C15.9297 19.4253 16.1669 18.835 16.6413 18.3395C17.1158 17.8441 17.6937 17.5964 18.375 17.5964C18.7258 17.5964 19.0602 17.6757 19.3783 17.8344C19.6949 17.993 20.0111 18.2287 20.3268 18.5414L21 19.1469L21.6288 18.5635C21.9399 18.2509 22.26 18.0113 22.589 17.8449C22.918 17.6784 23.2633 17.5956 23.625 17.5964C24.2916 17.5964 24.8659 17.8441 25.3482 18.3395C25.8304 18.835 26.0715 19.4257 26.0715 20.1117C26.0715 20.6608 25.8409 21.2084 25.3797 21.7544C24.9184 22.3012 23.8774 23.2738 22.2565 24.6722L21 25.763ZM21 24.1974L21.9065 23.4367C23.1603 22.3688 23.9731 21.6299 24.3448 21.22C24.7182 20.8109 24.9048 20.4407 24.9048 20.1094C24.9048 19.75 24.7765 19.4358 24.5198 19.1667C24.2647 18.8976 23.9664 18.763 23.625 18.763C23.4127 18.763 23.2202 18.8043 23.0475 18.8867C22.8748 18.9692 22.6858 19.1111 22.4805 19.3125L21 20.7277L19.4903 19.3125C19.285 19.1119 19.0948 18.9699 18.9198 18.8867C18.7448 18.8035 18.5632 18.7623 18.375 18.763C18.0172 18.763 17.7147 18.8976 17.4673 19.1667C17.22 19.4358 17.0963 19.75 17.0963 20.1094C17.0963 20.4329 17.3001 20.8199 17.7077 21.2702C18.1152 21.7213 18.9233 22.4583 20.132 23.481L21 24.1974ZM8.16667 19.75C8.03833 19.75 7.93022 19.7267 7.84233 19.68C7.75522 19.6326 7.68522 19.554 7.63233 19.4444L5.46233 15.0834H3.5V13.9167H5.83333C5.93911 13.9167 6.03789 13.9467 6.12967 14.0065C6.22067 14.0657 6.29028 14.145 6.3385 14.2445L8.16667 17.8717L12.299 9.57671C12.3488 9.48726 12.4231 9.41998 12.5218 9.37487C12.6206 9.32976 12.7244 9.3076 12.8333 9.30837C12.9422 9.30915 13.0433 9.33171 13.1367 9.37604C13.23 9.42037 13.2996 9.48765 13.3455 9.57787L15.5073 13.9167H19.25V15.0834H15.1667C15.0383 15.0834 14.9302 15.06 14.8423 15.0134C14.7552 14.9659 14.6852 14.8878 14.6323 14.7789L12.8112 11.1564L8.67183 19.4455C8.61895 19.5544 8.54778 19.6322 8.45833 19.6789C8.36811 19.7263 8.27089 19.75 8.16667 19.75Z" fill="white"/>
</g>
</svg>
