<svg width="28" height="29" viewBox="0 0 28 29" fill="none" xmlns="http://www.w3.org/2000/svg">
<g id="material-symbols-light:eda-outline-rounded">
<path id="Vector" d="M9.53641 3.73168C9.70208 3.73168 9.84052 3.78729 9.95175 3.89851C10.063 4.00973 10.1186 4.14818 10.1186 4.31384V13.6472C10.1186 13.8128 10.0626 13.9513 9.95058 14.0625C9.83858 14.1745 9.69975 14.2305 9.53408 14.2305C9.36841 14.2305 9.22997 14.1745 9.11875 14.0625C9.00752 13.9505 8.95191 13.8121 8.95191 13.6472V4.31384C8.95191 4.14895 9.00791 4.01051 9.11991 3.89851C9.23191 3.78651 9.37075 3.73168 9.53641 3.73168ZM13.7994 2.56384C13.9651 2.56384 14.1035 2.61984 14.2147 2.73184C14.326 2.84384 14.3816 2.98229 14.3816 3.14718V13.6472C14.3816 13.8128 14.3256 13.9513 14.2136 14.0625C14.1016 14.1737 13.9627 14.2297 13.7971 14.2305C13.6314 14.2313 13.493 14.1753 13.3817 14.0625C13.2705 13.9497 13.2149 13.8113 13.2149 13.6472V3.14718C13.2149 2.98229 13.2709 2.84384 13.3829 2.73184C13.4949 2.61984 13.6337 2.56384 13.7994 2.56384ZM17.5001 19.2985V5.48168C17.5001 5.31679 17.5561 5.17834 17.6681 5.06634C17.7801 4.95434 17.9189 4.89834 18.0846 4.89834C18.2502 4.89834 18.3887 4.95434 18.4999 5.06634C18.6111 5.17834 18.6667 5.31679 18.6667 5.48168V18.6253L17.5001 19.2985ZM5.83341 18.315V22.4438C5.8933 23.2348 6.20014 23.9111 6.75391 24.4727C7.30769 25.0342 7.97308 25.315 8.75008 25.315H15.3709C15.6081 25.315 15.8306 25.2699 16.0382 25.1797C16.2459 25.0887 16.438 24.9646 16.6146 24.8075L23.3136 18.0642L23.1117 17.9067C22.992 17.8172 22.8574 17.7686 22.7081 17.7608C22.558 17.7531 22.423 17.7869 22.3032 17.8623L14.7246 22.333C14.3092 22.5803 13.8698 22.6531 13.4062 22.5512C12.9419 22.4501 12.5647 22.2109 12.2746 21.8337L9.62508 18.3127L5.83341 18.315ZM8.75008 26.4817C7.61608 26.4817 6.65203 26.0846 5.85791 25.2905C5.0638 24.4964 4.66675 23.532 4.66675 22.3972V17.1472H9.26575C9.56441 17.1472 9.84714 17.2141 10.1139 17.3478C10.3807 17.4816 10.6004 17.666 10.7731 17.9008L13.1706 21.0975C13.2896 21.2476 13.4354 21.3413 13.6081 21.3787C13.7792 21.416 13.9472 21.39 14.1121 21.3005L18.6667 18.6242L22.0769 16.6362C22.4106 16.448 22.7684 16.3643 23.1502 16.3853C23.5329 16.4071 23.8736 16.5316 24.1722 16.7587C24.4911 17.0021 24.6634 17.3222 24.6891 17.7188C24.7147 18.1155 24.5884 18.4531 24.3099 18.7315L17.4242 25.6172C17.138 25.9026 16.8222 26.1181 16.4769 26.2635C16.1316 26.409 15.7606 26.4813 15.3639 26.4805L8.75008 26.4817ZM5.83341 17.1483H4.66675V6.64834C4.66675 6.48268 4.72275 6.34384 4.83475 6.23184C4.94675 6.11984 5.08558 6.06423 5.25125 6.06501C5.41691 6.06579 5.55536 6.12179 5.66658 6.23301C5.7778 6.34423 5.83341 6.48268 5.83341 6.64834V17.1483Z" fill="white"/>
</g>
</svg>
