<svg width="25" height="24" viewBox="0 0 25 24" fill="none" xmlns="http://www.w3.org/2000/svg">
<g id="noun-cross-platform-5329714 1" clip-path="url(#clip0_4521_700)">
<g id="Group">
<g id="Group_2">
<path id="Vector" d="M1.98769 20.1726L1.9872 20.1727C1.79785 20.1945 1.65867 20.3548 1.65867 20.5387V22.464C1.65867 22.6686 1.82077 22.8307 2.02533 22.8307H7.51867H17.5133H23.0013C23.208 22.8307 23.3611 22.6689 23.3883 22.4782L23.3893 22.4711V22.464V20.5387C23.3893 20.3466 23.2421 20.1944 23.0612 20.1727L23.0603 20.1726L20.6184 19.9024C20.4711 19.4429 20.2832 18.9929 20.0589 18.5608L21.5968 16.6385C21.7147 16.491 21.6992 16.2791 21.568 16.148L18.8427 13.4226C18.7116 13.2915 18.4996 13.276 18.3522 13.3939L16.4301 14.9316C16.0023 14.7072 15.5523 14.5193 15.0882 14.3721L14.8181 11.925L14.818 11.9241C14.7958 11.7393 14.6347 11.6013 14.452 11.6013H12.8827V7.71225C13.6329 7.56404 14.2292 6.97029 14.3777 6.21734H17.78C17.9779 6.21734 18.1467 6.05654 18.1467 5.85068C18.1467 5.64612 17.9846 5.48401 17.78 5.48401H14.3779C14.2069 4.61201 13.4378 3.95334 12.516 3.95334C11.5942 3.95334 10.8251 4.61201 10.6541 5.48401H7.252C7.04744 5.48401 6.88533 5.64612 6.88533 5.85068C6.88533 6.05524 7.04744 6.21734 7.252 6.21734H10.6541C10.8019 6.9707 11.396 7.56482 12.1493 7.71255V11.6013H10.6013C10.412 11.6013 10.2574 11.7405 10.2354 11.9241L10.2353 11.925L9.96509 14.3723C9.50552 14.5196 9.05555 14.7074 8.62346 14.9318L6.70114 13.3939C6.55369 13.276 6.34175 13.2915 6.21062 13.4226L3.48529 16.148C3.35416 16.2791 3.33863 16.491 3.45658 16.6385L4.99424 18.5605C4.76984 18.9883 4.58196 19.4384 4.43474 19.9025L1.98769 20.1726ZM17.1323 22.0973H7.89972C8.08732 19.7152 10.0866 17.8333 12.516 17.8333C14.9454 17.8333 16.9447 19.7152 17.1323 22.0973ZM22.64 20.8682V22.0973H17.8676C17.6784 19.311 15.3493 17.1 12.516 17.1C9.68266 17.1 7.35362 19.311 7.16441 22.0973H2.39238L2.397 20.8682L4.75481 20.6062C4.75507 20.6062 4.75533 20.6062 4.75559 20.6062C4.91021 20.5911 5.02758 20.4863 5.07045 20.3434L5.07047 20.3434L5.07102 20.3414C5.22876 19.7736 5.4603 19.2209 5.75008 18.6992L5.75017 18.6993L5.75211 18.6954C5.81525 18.5691 5.8109 18.409 5.71387 18.2893C5.71378 18.2892 5.7137 18.2891 5.71361 18.289L4.22869 16.4341L6.48607 14.1767L8.34094 15.6616C8.34102 15.6617 8.3411 15.6618 8.34118 15.6618C8.45797 15.7565 8.61934 15.7714 8.75123 15.6981C9.27235 15.4086 9.82528 15.1821 10.3943 15.0188L10.3954 15.0185C10.5399 14.9751 10.6431 14.8514 10.6581 14.7039C10.6581 14.7037 10.6582 14.7035 10.6582 14.7033L10.9202 12.3453H12.516H14.1172L14.3791 14.7028C14.3791 14.7031 14.3792 14.7034 14.3792 14.7037C14.3943 14.8583 14.499 14.9756 14.6419 15.0185L14.6419 15.0185L14.6439 15.019C15.2118 15.1768 15.7645 15.4083 16.2861 15.6981C16.4179 15.7713 16.5792 15.7566 16.696 15.662C16.6961 15.6618 16.6963 15.6617 16.6964 15.6616L18.5513 14.1767L20.8086 16.4341L19.3237 18.289C19.3236 18.2891 19.3235 18.2892 19.3234 18.2894C19.2288 18.4062 19.214 18.5674 19.2873 18.6992C19.5768 19.2204 19.8032 19.7733 19.9665 20.3423L19.9669 20.3434C20.0102 20.4879 20.134 20.5912 20.2815 20.6061C20.2817 20.6061 20.2819 20.6062 20.2821 20.6062L22.64 20.8682ZM5.66267 18.6507C5.71067 18.5547 5.70533 18.4373 5.636 18.352L5.66267 18.6507ZM10.3667 14.9227C10.4733 14.8907 10.548 14.8 10.5587 14.6933L10.3667 14.9227ZM12.7651 12.2453H14.2067H12.7651ZM11.352 5.85068C11.352 5.20724 11.8726 4.68668 12.516 4.68668C13.1544 4.68668 13.68 5.20751 13.68 5.85068C13.68 6.49384 13.1544 7.01468 12.516 7.01468C11.8726 7.01468 11.352 6.49412 11.352 5.85068Z" fill="white" stroke="white" stroke-width="0.2"/>
</g>
<g id="Group_3">
<path id="Vector_2" d="M6.21201 10.3573H1.72667C1.17734 10.3573 0.72934 9.90933 0.72934 9.35999V2.34133C0.72934 1.79199 1.17734 1.34399 1.72667 1.34399H6.21734C6.76667 1.34399 7.21467 1.79199 7.21467 2.34133V9.35466C7.20934 9.90933 6.76134 10.3573 6.21201 10.3573ZM1.72667 1.87733C1.47067 1.87733 1.26267 2.08533 1.26267 2.34133V9.35466C1.26267 9.61066 1.47067 9.81866 1.72667 9.81866H6.21734C6.47334 9.81866 6.68134 9.61066 6.68134 9.35466V2.34133C6.68134 2.08533 6.47334 1.87733 6.21734 1.87733C6.21201 1.87733 1.72667 1.87733 1.72667 1.87733Z" fill="white"/>
</g>
<g id="Group_4">
<path id="Vector_3" d="M6.94267 3.39198H0.996006C0.846673 3.39198 0.72934 3.27464 0.72934 3.12531C0.72934 2.97598 0.846673 2.85864 0.996006 2.85864H6.94801C7.09734 2.85864 7.21467 2.97598 7.21467 3.12531C7.21467 3.27464 7.09201 3.39198 6.94267 3.39198Z" fill="white"/>
</g>
<g id="Group_5">
<path id="Vector_4" d="M6.94267 8.84266H0.996006C0.846673 8.84266 0.72934 8.72533 0.72934 8.57599C0.72934 8.42666 0.846673 8.30933 0.996006 8.30933H6.94801C7.09734 8.30933 7.21467 8.42666 7.21467 8.57599C7.21467 8.72533 7.09201 8.84266 6.94267 8.84266Z" fill="white"/>
</g>
<g id="Group_6">
<path id="Vector_5" d="M4.5 2.63465H3.43866C3.28933 2.63465 3.172 2.51732 3.172 2.36799C3.172 2.21865 3.28933 2.10132 3.43866 2.10132H4.5C4.64933 2.10132 4.76666 2.21865 4.76666 2.36799C4.76666 2.51732 4.64933 2.63465 4.5 2.63465Z" fill="white"/>
</g>
<g id="Group_7">
<path id="Vector_6" d="M4.5 9.59998H3.43866C3.28933 9.59998 3.172 9.48265 3.172 9.33332C3.172 9.18398 3.28933 9.06665 3.43866 9.06665H4.5C4.64933 9.06665 4.76666 9.18398 4.76666 9.33332C4.76666 9.48265 4.64933 9.59998 4.5 9.59998Z" fill="white"/>
</g>
<g id="Group_8">
<path id="Vector_7" d="M23.3 10.3573H18.8093C18.26 10.3573 17.812 9.90933 17.812 9.35999V2.34133C17.812 1.79199 18.26 1.34399 18.8093 1.34399H23.3C23.8493 1.34399 24.2973 1.79199 24.2973 2.34133V9.35466C24.3027 9.90933 23.8547 10.3573 23.3 10.3573ZM18.8147 1.87733C18.5587 1.87733 18.3507 2.08533 18.3507 2.34133V9.35466C18.3507 9.61066 18.5587 9.81866 18.8147 9.81866H23.3053C23.5613 9.81866 23.7693 9.61066 23.7693 9.35466V2.34133C23.7693 2.08533 23.5613 1.87733 23.3053 1.87733H18.8147Z" fill="white"/>
</g>
<g id="Group_9">
<path id="Vector_8" d="M24.036 3.39198H18.084C17.9347 3.39198 17.8174 3.27464 17.8174 3.12531C17.8174 2.97598 17.9347 2.85864 18.084 2.85864H24.036C24.1854 2.85864 24.3027 2.97598 24.3027 3.12531C24.3027 3.27464 24.18 3.39198 24.036 3.39198Z" fill="white"/>
</g>
<g id="Group_10">
<path id="Vector_9" d="M24.036 8.84266H18.084C17.9347 8.84266 17.8174 8.72533 17.8174 8.57599C17.8174 8.42666 17.9347 8.30933 18.084 8.30933H24.036C24.1854 8.30933 24.3027 8.42666 24.3027 8.57599C24.3027 8.72533 24.18 8.84266 24.036 8.84266Z" fill="white"/>
</g>
<g id="Group_11">
<path id="Vector_10" d="M21.588 2.63465H20.5213C20.372 2.63465 20.2547 2.51732 20.2547 2.36799C20.2547 2.21865 20.372 2.10132 20.5213 2.10132H21.588C21.7373 2.10132 21.8547 2.21865 21.8547 2.36799C21.8547 2.51732 21.7373 2.63465 21.588 2.63465Z" fill="white"/>
</g>
<g id="Group_12">
<path id="Vector_11" d="M21.588 9.59998H20.5213C20.372 9.59998 20.2547 9.48265 20.2547 9.33332C20.2547 9.18398 20.372 9.06665 20.5213 9.06665H21.588C21.7373 9.06665 21.8547 9.18398 21.8547 9.33332C21.8547 9.48265 21.7373 9.59998 21.588 9.59998Z" fill="white"/>
</g>
</g>
</g>
<defs>
<clipPath id="clip0_4521_700">
<rect width="24" height="24" fill="white" transform="translate(0.5)"/>
</clipPath>
</defs>
</svg>
