<svg width="24" height="24" viewBox="0 0 24 24" fill="none" xmlns="http://www.w3.org/2000/svg">
<g id="noun-consent-5590131 1" clip-path="url(#clip0_4461_12222)">
<path id="Vector" d="M12.1875 4.125C12.1873 3.92615 12.1082 3.7355 11.9676 3.59489C11.827 3.45428 11.6364 3.3752 11.4375 3.375H10.3125V2.25C10.3123 2.05115 10.2332 1.8605 10.0926 1.71989C9.952 1.57928 9.76135 1.5002 9.5625 1.5H8.8125C8.61365 1.5002 8.423 1.57928 8.28239 1.71989C8.14178 1.8605 8.0627 2.05115 8.0625 2.25V3.375H6.9375C6.73865 3.3752 6.548 3.45428 6.40739 3.59489C6.26678 3.7355 6.1877 3.92615 6.1875 4.125V4.875C6.1877 5.07385 6.26678 5.2645 6.40739 5.40511C6.548 5.54572 6.73865 5.6248 6.9375 5.625H8.0625V6.75C8.0627 6.94885 8.14178 7.1395 8.28239 7.28011C8.423 7.42072 8.61365 7.4998 8.8125 7.5H9.5625C9.76135 7.4998 9.952 7.42072 10.0926 7.28011C10.2332 7.1395 10.3123 6.94885 10.3125 6.75V5.625H11.4375C11.6364 5.6248 11.827 5.54572 11.9676 5.40511C12.1082 5.2645 12.1873 5.07385 12.1875 4.875V4.125ZM11.4375 4.875H9.9375C9.83805 4.87501 9.74267 4.91452 9.67234 4.98484C9.60202 5.05517 9.56251 5.15055 9.5625 5.25V6.75H8.8125V5.25C8.81249 5.15055 8.77298 5.05517 8.70266 4.98484C8.63233 4.91452 8.53695 4.87501 8.4375 4.875H6.9375V4.125H8.4375C8.53695 4.12499 8.63233 4.08548 8.70266 4.01516C8.77298 3.94483 8.81249 3.84945 8.8125 3.75V2.25H9.5625V3.75C9.56251 3.84945 9.60202 3.94483 9.67234 4.01516C9.74267 4.08548 9.83805 4.12499 9.9375 4.125L11.4375 4.12445V4.875Z" fill="white"/>
<path id="Vector_2" d="M17.625 22.9202C17.6265 23.1517 17.5693 23.2381 17.558 23.2454C17.5478 23.2489 17.5371 23.2505 17.5263 23.25H5.55743C5.48832 23.2572 5.41916 23.2368 5.36498 23.1933C5.31081 23.1498 5.27599 23.0867 5.26812 23.0176L5.25567 20.6516C5.23485 20.3844 5.11229 20.1355 4.91328 19.9561C4.71427 19.7767 4.45399 19.6806 4.18616 19.6875L1.1911 19.6877C1.09388 19.6726 1.00269 19.631 0.927508 19.5676C0.852325 19.5041 0.796047 19.4212 0.764831 19.3279L0.75 1.11237C0.753615 1.00691 0.796829 0.906686 0.871033 0.831666C0.913056 0.784993 0.9711 0.75584 1.03363 0.75H17.3835C17.5312 0.75 17.6239 0.914062 17.625 1.06402V5.02012C17.7213 5.00255 17.8186 4.99144 17.9163 4.98687L18.3301 4.96966C18.3453 4.96911 18.36 4.96963 18.375 4.96966V1.06128C18.3803 0.926484 18.3589 0.791962 18.312 0.665486C18.2651 0.53901 18.1936 0.423085 18.1016 0.324407C18.0096 0.22573 17.899 0.146255 17.7761 0.0905743C17.6532 0.0348932 17.5205 0.00410907 17.3857 0L1.03052 0C0.900592 0.00246328 0.772445 0.0306593 0.653485 0.0829574C0.534526 0.135256 0.427114 0.210618 0.337463 0.304688C0.124135 0.520919 0.00313906 0.81156 0 1.11529L0.0148312 19.3308C0.0306289 19.5249 0.094375 19.712 0.200346 19.8753C0.306317 20.0387 0.451196 20.1732 0.621975 20.2667L4.78033 23.7052C4.81472 23.7337 4.85392 23.7557 4.89608 23.7704C5.08273 23.9193 5.31447 24.0002 5.55322 24H17.5283C17.633 24.0017 17.737 23.9823 17.8341 23.9429C17.9311 23.9036 18.0192 23.8451 18.0932 23.7709C18.1946 23.6546 18.2717 23.5192 18.3201 23.3727C18.3685 23.2262 18.3872 23.0715 18.375 22.9177V22.7754C18.1219 22.7744 17.8716 22.7603 17.625 22.7369V22.9202ZM4.50586 20.6646L4.51559 22.5132L2.00523 20.4375L4.17755 20.4373C4.33301 20.441 4.50201 20.5367 4.50586 20.6646Z" fill="white"/>
<path id="Vector_3" d="M23.9956 9.43925C23.9934 9.32835 23.9684 9.21909 23.9224 9.11817C23.8764 9.01726 23.8102 8.92681 23.7279 8.8524C23.4284 8.60455 23.0464 8.47887 22.6582 8.50046L21.9729 8.49926V8.3472C21.9653 8.20941 21.9307 8.07446 21.8709 7.95007C21.8111 7.82568 21.7275 7.7143 21.6246 7.62228C21.3649 7.3705 21.0195 7.22633 20.6578 7.21873C20.6497 7.21873 20.6417 7.21892 20.6338 7.21892L20.2315 7.22698C20.0496 7.23393 19.8718 7.28317 19.7123 7.37079C19.7113 7.04332 19.7099 6.83225 19.7079 6.80766C19.6196 5.76689 18.6955 5.73082 18.3919 5.7191C18.3818 5.71855 18.3717 5.71891 18.3617 5.7191L17.9482 5.73632C17.2636 5.76506 16.6949 6.28966 16.7058 6.87468V7.33171C16.5215 7.24996 16.3208 7.21168 16.1194 7.21984L15.677 7.23778C14.987 7.26561 14.4355 7.79405 14.4472 8.40856V13.3692C14.4246 13.3631 14.4028 13.3554 14.3797 13.3504C14.0552 13.2861 13.7186 13.3349 13.4257 13.4884L12.9172 13.7448C12.209 14.0433 11.862 14.5992 12.0537 15.1316C12.0559 15.1377 12.0583 15.1437 12.0606 15.1496L13.7066 19.073C13.9209 19.658 14.2557 20.1915 14.6893 20.6389C14.9397 20.8964 15.2245 21.118 15.5356 21.2975C16.2016 21.7908 17.2804 22.0254 18.4012 22.0254C19.888 22.0254 21.4486 21.6128 22.216 20.8453C23.2667 19.9208 23.9083 18.6177 24.0002 17.2212L23.9956 9.43925ZM21.7079 20.2936C21.7022 20.2987 21.6966 20.304 21.6913 20.3095C20.5956 21.4173 17.2264 21.6385 15.969 20.685C15.9562 20.6754 15.9428 20.6665 15.9289 20.6585C15.6711 20.5119 15.4352 20.3297 15.2282 20.1174C14.8693 19.7466 14.5917 19.305 14.4132 18.8209C14.4103 18.8123 14.407 18.8036 14.4035 18.7952L12.7575 14.8718C12.7217 14.7488 12.9254 14.5532 13.2175 14.4322C13.2261 14.4287 13.2347 14.4249 13.243 14.4207L13.7635 14.1581C13.9029 14.0823 14.0638 14.0559 14.22 14.0832C14.2943 14.0933 14.3652 14.1209 14.4267 14.1637C14.4883 14.2066 14.5387 14.2634 14.5739 14.3296L15.2687 16.2601C15.3714 16.3856 15.5088 16.4781 15.6638 16.5258C16.0309 16.607 16.386 16.7358 16.7199 16.9087C16.791 16.8072 16.8705 16.7119 16.9576 16.6238L17.2398 16.3415C16.8238 16.1003 16.374 15.9226 15.9053 15.8145L15.2796 14.0757C15.2577 14.0172 15.2301 13.961 15.1972 13.9079V8.40141C15.2162 8.28157 15.2787 8.17296 15.3729 8.09646C15.4671 8.01997 15.5862 7.98099 15.7074 7.98703L16.1497 7.96909C16.3057 7.96537 16.457 8.02266 16.5714 8.12876C16.6436 8.18968 16.6903 8.27537 16.7025 8.36899L16.7058 13.2189C16.7059 13.3183 16.7454 13.4137 16.8157 13.484C16.8861 13.5543 16.9814 13.5937 17.0808 13.5937C17.1301 13.5937 17.179 13.584 17.2245 13.5652C17.27 13.5463 17.3113 13.5187 17.3461 13.4839C17.3809 13.449 17.4085 13.4077 17.4274 13.3622C17.4462 13.3167 17.4559 13.268 17.4558 13.2187V6.86754C17.4527 6.70568 17.6939 6.49767 17.9795 6.48559L18.3772 6.46911C18.9016 6.49217 18.9406 6.6372 18.9597 6.85876C18.9657 7.02575 18.9652 12.9347 18.9591 13.1796C18.9583 13.2839 18.997 13.3847 19.0676 13.4615C19.1381 13.5384 19.2352 13.5857 19.3393 13.5937C19.4387 13.5937 19.5341 13.5542 19.6044 13.4839C19.6748 13.4136 19.7143 13.3182 19.7143 13.2187L19.7145 8.48252C19.7425 8.35469 19.8081 8.23819 19.903 8.14807C19.9979 8.05795 20.1176 7.99835 20.2467 7.97697L20.649 7.96891C20.7341 7.96967 20.8181 7.9872 20.8963 8.02051C20.9746 8.05382 21.0455 8.10224 21.105 8.163C21.1647 8.21178 21.2062 8.27925 21.2229 8.35453V13.194C21.2229 13.2935 21.2624 13.3888 21.3327 13.4592C21.403 13.5295 21.4984 13.569 21.5979 13.569C21.6973 13.569 21.7927 13.5295 21.863 13.4592C21.9334 13.3888 21.9729 13.2935 21.9729 13.194V9.24925L22.6736 9.2501C22.8653 9.23629 23.056 9.28864 23.2138 9.39842C23.2453 9.42808 23.2455 9.44383 23.2456 9.44602L23.2506 17.2062C23.1646 18.3988 22.6099 19.5088 21.7079 20.2936Z" fill="white"/>
<path id="Vector_4" d="M19.123 15.5189L17.4878 17.154C17.2124 17.4295 17.0576 17.803 17.0576 18.1925C17.0576 18.5821 17.2123 18.9556 17.4877 19.2311C17.7632 19.5065 18.1367 19.6613 18.5263 19.6613C18.9158 19.6613 19.2894 19.5066 19.5648 19.2312L21.2001 17.5959C21.4755 17.3204 21.6303 16.9468 21.6302 16.5573C21.6302 16.1678 21.4755 15.7942 21.2 15.5188C20.9246 15.2434 20.551 15.0887 20.1615 15.0887C19.772 15.0887 19.3984 15.2435 19.123 15.5189ZM18.0181 18.7009C17.9514 18.6342 17.8984 18.5549 17.8623 18.4677C17.8261 18.3805 17.8075 18.287 17.8075 18.1926C17.8075 18.0982 17.8261 18.0047 17.8623 17.9175C17.8984 17.8303 17.9514 17.7511 18.0181 17.6843L18.5263 17.1761L19.5428 18.1926L19.0345 18.7009C18.8996 18.8355 18.7169 18.9111 18.5263 18.9111C18.3358 18.9111 18.153 18.8355 18.0181 18.7009ZM20.6698 17.0656L20.0731 17.6623L19.0566 16.6458L19.6532 16.0492C19.788 15.9144 19.9708 15.8386 20.1615 15.8386C20.3521 15.8386 20.5349 15.9143 20.6698 16.0491C20.8046 16.1839 20.8803 16.3667 20.8803 16.5573C20.8803 16.748 20.8046 16.9308 20.6698 17.0656Z" fill="white"/>
<path id="Vector_5" d="M5.4375 9.1875H4.6875C4.58804 9.1875 4.49266 9.22701 4.42234 9.29733C4.35201 9.36766 4.3125 9.46304 4.3125 9.5625C4.3125 9.66196 4.35201 9.75734 4.42234 9.82767C4.49266 9.89799 4.58804 9.9375 4.6875 9.9375H5.4375C5.53696 9.9375 5.63234 9.89799 5.70266 9.82767C5.77299 9.75734 5.8125 9.66196 5.8125 9.5625C5.8125 9.46304 5.77299 9.36766 5.70266 9.29733C5.63234 9.22701 5.53696 9.1875 5.4375 9.1875Z" fill="white"/>
<path id="Vector_6" d="M3.375 9.1875H2.625C2.52554 9.1875 2.43016 9.22701 2.35984 9.29733C2.28951 9.36766 2.25 9.46304 2.25 9.5625C2.25 9.66196 2.28951 9.75734 2.35984 9.82767C2.43016 9.89799 2.52554 9.9375 2.625 9.9375H3.375C3.47446 9.9375 3.56984 9.89799 3.64016 9.82767C3.71049 9.75734 3.75 9.66196 3.75 9.5625C3.75 9.46304 3.71049 9.36766 3.64016 9.29733C3.56984 9.22701 3.47446 9.1875 3.375 9.1875Z" fill="white"/>
<path id="Vector_7" d="M7.5 9.1875H6.75C6.65054 9.1875 6.55516 9.22701 6.48483 9.29733C6.41451 9.36766 6.375 9.46304 6.375 9.5625C6.375 9.66196 6.41451 9.75734 6.48483 9.82767C6.55516 9.89799 6.65054 9.9375 6.75 9.9375H7.5C7.59946 9.9375 7.69484 9.89799 7.76517 9.82767C7.83549 9.75734 7.875 9.66196 7.875 9.5625C7.875 9.46304 7.83549 9.36766 7.76517 9.29733C7.69484 9.22701 7.59946 9.1875 7.5 9.1875Z" fill="white"/>
<path id="Vector_8" d="M13.697 9.18846C13.6938 9.18838 13.6908 9.1875 13.6875 9.1875H12.9375C12.838 9.1875 12.7427 9.22701 12.6723 9.29733C12.602 9.36766 12.5625 9.46304 12.5625 9.5625C12.5625 9.66196 12.602 9.75734 12.6723 9.82767C12.7427 9.89799 12.838 9.9375 12.9375 9.9375H13.6875C13.6908 9.9375 13.6938 9.93662 13.697 9.93654V9.18846Z" fill="white"/>
<path id="Vector_9" d="M11.625 9.1875H10.875C10.7755 9.1875 10.6802 9.22701 10.6098 9.29733C10.5395 9.36766 10.5 9.46304 10.5 9.5625C10.5 9.66196 10.5395 9.75734 10.6098 9.82767C10.6802 9.89799 10.7755 9.9375 10.875 9.9375H11.625C11.7245 9.9375 11.8198 9.89799 11.8902 9.82767C11.9605 9.75734 12 9.66196 12 9.5625C12 9.46304 11.9605 9.36766 11.8902 9.29733C11.8198 9.22701 11.7245 9.1875 11.625 9.1875Z" fill="white"/>
<path id="Vector_10" d="M9.5625 9.1875H8.8125C8.71304 9.1875 8.61766 9.22701 8.54733 9.29733C8.47701 9.36766 8.4375 9.46304 8.4375 9.5625C8.4375 9.66196 8.47701 9.75734 8.54733 9.82767C8.61766 9.89799 8.71304 9.9375 8.8125 9.9375H9.5625C9.66196 9.9375 9.75734 9.89799 9.82767 9.82767C9.89799 9.75734 9.9375 9.66196 9.9375 9.5625C9.9375 9.46304 9.89799 9.36766 9.82767 9.29733C9.75734 9.22701 9.66196 9.1875 9.5625 9.1875Z" fill="white"/>
<path id="Vector_11" d="M3.375 11.8125H2.625C2.52554 11.8125 2.43016 11.852 2.35984 11.9223C2.28951 11.9927 2.25 12.088 2.25 12.1875C2.25 12.287 2.28951 12.3823 2.35984 12.4527C2.43016 12.523 2.52554 12.5625 2.625 12.5625H3.375C3.47446 12.5625 3.56984 12.523 3.64016 12.4527C3.71049 12.3823 3.75 12.287 3.75 12.1875C3.75 12.088 3.71049 11.9927 3.64016 11.9223C3.56984 11.852 3.47446 11.8125 3.375 11.8125Z" fill="white"/>
<path id="Vector_12" d="M5.4375 11.8125H4.6875C4.58804 11.8125 4.49266 11.852 4.42234 11.9223C4.35201 11.9927 4.3125 12.088 4.3125 12.1875C4.3125 12.287 4.35201 12.3823 4.42234 12.4527C4.49266 12.523 4.58804 12.5625 4.6875 12.5625H5.4375C5.53696 12.5625 5.63234 12.523 5.70266 12.4527C5.77299 12.3823 5.8125 12.287 5.8125 12.1875C5.8125 12.088 5.77299 11.9927 5.70266 11.9223C5.63234 11.852 5.53696 11.8125 5.4375 11.8125Z" fill="white"/>
<path id="Vector_13" d="M7.5 11.8125H6.75C6.65054 11.8125 6.55516 11.852 6.48483 11.9223C6.41451 11.9927 6.375 12.088 6.375 12.1875C6.375 12.287 6.41451 12.3823 6.48483 12.4527C6.55516 12.523 6.65054 12.5625 6.75 12.5625H7.5C7.59946 12.5625 7.69484 12.523 7.76517 12.4527C7.83549 12.3823 7.875 12.287 7.875 12.1875C7.875 12.088 7.83549 11.9927 7.76517 11.9223C7.69484 11.852 7.59946 11.8125 7.5 11.8125Z" fill="white"/>
<path id="Vector_14" d="M12.9375 11.8125C12.838 11.8125 12.7427 11.852 12.6723 11.9223C12.602 11.9927 12.5625 12.088 12.5625 12.1875C12.5625 12.287 12.602 12.3823 12.6723 12.4527C12.7427 12.523 12.838 12.5625 12.9375 12.5625H13.6875C13.6908 12.5625 13.6938 12.5616 13.697 12.5615V11.8135C13.6938 11.8134 13.6908 11.8125 13.6875 11.8125H12.9375Z" fill="white"/>
<path id="Vector_15" d="M11.625 11.8125H10.875C10.7755 11.8125 10.6802 11.852 10.6098 11.9223C10.5395 11.9927 10.5 12.088 10.5 12.1875C10.5 12.287 10.5395 12.3823 10.6098 12.4527C10.6802 12.523 10.7755 12.5625 10.875 12.5625H11.625C11.7245 12.5625 11.8198 12.523 11.8902 12.4527C11.9605 12.3823 12 12.287 12 12.1875C12 12.088 11.9605 11.9927 11.8902 11.9223C11.8198 11.852 11.7245 11.8125 11.625 11.8125Z" fill="white"/>
<path id="Vector_16" d="M9.5625 11.8125H8.8125C8.71304 11.8125 8.61766 11.852 8.54733 11.9223C8.47701 11.9927 8.4375 12.088 8.4375 12.1875C8.4375 12.287 8.47701 12.3823 8.54733 12.4527C8.61766 12.523 8.71304 12.5625 8.8125 12.5625H9.5625C9.66196 12.5625 9.75734 12.523 9.82767 12.4527C9.89799 12.3823 9.9375 12.287 9.9375 12.1875C9.9375 12.088 9.89799 11.9927 9.82767 11.9223C9.75734 11.852 9.66196 11.8125 9.5625 11.8125Z" fill="white"/>
<path id="Vector_17" d="M3.375 14.4375H2.625C2.52554 14.4375 2.43016 14.477 2.35984 14.5473C2.28951 14.6177 2.25 14.713 2.25 14.8125C2.25 14.912 2.28951 15.0073 2.35984 15.0777C2.43016 15.148 2.52554 15.1875 2.625 15.1875H3.375C3.47446 15.1875 3.56984 15.148 3.64016 15.0777C3.71049 15.0073 3.75 14.912 3.75 14.8125C3.75 14.713 3.71049 14.6177 3.64016 14.5473C3.56984 14.477 3.47446 14.4375 3.375 14.4375Z" fill="white"/>
<path id="Vector_18" d="M5.4375 14.4375H4.6875C4.58804 14.4375 4.49266 14.477 4.42234 14.5473C4.35201 14.6177 4.3125 14.713 4.3125 14.8125C4.3125 14.912 4.35201 15.0073 4.42234 15.0777C4.49266 15.148 4.58804 15.1875 4.6875 15.1875H5.4375C5.53696 15.1875 5.63234 15.148 5.70266 15.0777C5.77299 15.0073 5.8125 14.912 5.8125 14.8125C5.8125 14.713 5.77299 14.6177 5.70266 14.5473C5.63234 14.477 5.53696 14.4375 5.4375 14.4375Z" fill="white"/>
<path id="Vector_19" d="M10.875 14.4375C10.7755 14.4375 10.6802 14.477 10.6098 14.5473C10.5395 14.6177 10.5 14.713 10.5 14.8125C10.5 14.912 10.5395 15.0073 10.6098 15.0777C10.6802 15.148 10.7755 15.1875 10.875 15.1875H11.2922C11.2373 14.94 11.2413 14.6831 11.3039 14.4375H10.875Z" fill="white"/>
<path id="Vector_20" d="M7.5 14.4375H6.75C6.65054 14.4375 6.55516 14.477 6.48483 14.5473C6.41451 14.6177 6.375 14.713 6.375 14.8125C6.375 14.912 6.41451 15.0073 6.48483 15.0777C6.55516 15.148 6.65054 15.1875 6.75 15.1875H7.5C7.59946 15.1875 7.69484 15.148 7.76517 15.0777C7.83549 15.0073 7.875 14.912 7.875 14.8125C7.875 14.713 7.83549 14.6177 7.76517 14.5473C7.69484 14.477 7.59946 14.4375 7.5 14.4375Z" fill="white"/>
<path id="Vector_21" d="M9.5625 14.4375H8.8125C8.71304 14.4375 8.61766 14.477 8.54733 14.5473C8.47701 14.6177 8.4375 14.713 8.4375 14.8125C8.4375 14.912 8.47701 15.0073 8.54733 15.0777C8.61766 15.148 8.71304 15.1875 8.8125 15.1875H9.5625C9.66196 15.1875 9.75734 15.148 9.82767 15.0777C9.89799 15.0073 9.9375 14.912 9.9375 14.8125C9.9375 14.713 9.89799 14.6177 9.82767 14.5473C9.75734 14.477 9.66196 14.4375 9.5625 14.4375Z" fill="white"/>
<path id="Vector_22" d="M5.4375 17.0625H4.6875C4.58804 17.0625 4.49266 17.102 4.42234 17.1723C4.35201 17.2427 4.3125 17.338 4.3125 17.4375C4.3125 17.537 4.35201 17.6323 4.42234 17.7027C4.49266 17.773 4.58804 17.8125 4.6875 17.8125H5.4375C5.53696 17.8125 5.63234 17.773 5.70266 17.7027C5.77299 17.6323 5.8125 17.537 5.8125 17.4375C5.8125 17.338 5.77299 17.2427 5.70266 17.1723C5.63234 17.102 5.53696 17.0625 5.4375 17.0625Z" fill="white"/>
<path id="Vector_23" d="M3.375 17.0625H2.625C2.52554 17.0625 2.43016 17.102 2.35984 17.1723C2.28951 17.2427 2.25 17.338 2.25 17.4375C2.25 17.537 2.28951 17.6323 2.35984 17.7027C2.43016 17.773 2.52554 17.8125 2.625 17.8125H3.375C3.47446 17.8125 3.56984 17.773 3.64016 17.7027C3.71049 17.6323 3.75 17.537 3.75 17.4375C3.75 17.338 3.71049 17.2427 3.64016 17.1723C3.56984 17.102 3.47446 17.0625 3.375 17.0625Z" fill="white"/>
<path id="Vector_24" d="M10.875 17.8125H11.625C11.7245 17.8125 11.8198 17.773 11.8902 17.7027C11.9605 17.6323 12 17.537 12 17.4375C12 17.338 11.9605 17.2427 11.8902 17.1723C11.8198 17.102 11.7245 17.0625 11.625 17.0625H10.875C10.7755 17.0625 10.6802 17.102 10.6098 17.1723C10.5395 17.2427 10.5 17.338 10.5 17.4375C10.5 17.537 10.5395 17.6323 10.6098 17.7027C10.6802 17.773 10.7755 17.8125 10.875 17.8125Z" fill="white"/>
<path id="Vector_25" d="M9.5625 17.0625H8.8125C8.71304 17.0625 8.61766 17.102 8.54733 17.1723C8.47701 17.2427 8.4375 17.338 8.4375 17.4375C8.4375 17.537 8.47701 17.6323 8.54733 17.7027C8.61766 17.773 8.71304 17.8125 8.8125 17.8125H9.5625C9.66196 17.8125 9.75734 17.773 9.82767 17.7027C9.89799 17.6323 9.9375 17.537 9.9375 17.4375C9.9375 17.338 9.89799 17.2427 9.82767 17.1723C9.75734 17.102 9.66196 17.0625 9.5625 17.0625Z" fill="white"/>
<path id="Vector_26" d="M7.5 17.0625H6.75C6.65054 17.0625 6.55516 17.102 6.48483 17.1723C6.41451 17.2427 6.375 17.338 6.375 17.4375C6.375 17.537 6.41451 17.6323 6.48483 17.7027C6.55516 17.773 6.65054 17.8125 6.75 17.8125H7.5C7.59946 17.8125 7.69484 17.773 7.76517 17.7027C7.83549 17.6323 7.875 17.537 7.875 17.4375C7.875 17.338 7.83549 17.2427 7.76517 17.1723C7.69484 17.102 7.59946 17.0625 7.5 17.0625Z" fill="white"/>
</g>
<defs>
<clipPath id="clip0_4461_12222">
<rect width="24" height="24" fill="white"/>
</clipPath>
</defs>
</svg>
