<svg width="24" height="24" viewBox="0 0 24 24" fill="none" xmlns="http://www.w3.org/2000/svg">
<g id="carbon:cloud-monitoring">
<path id="Vector" d="M21 12V16.5H3V4.5H8.25V3H3C2.60218 3 2.22064 3.15804 1.93934 3.43934C1.65804 3.72064 1.5 4.10218 1.5 4.5V16.5C1.5 16.8978 1.65804 17.2794 1.93934 17.5607C2.22064 17.842 2.60218 18 3 18H9V21H6V22.5H18V21H15V18H21C21.3978 18 21.7794 17.842 22.0607 17.5607C22.342 17.2794 22.5 16.8978 22.5 16.5V12H21ZM13.5 21H10.5V18H13.5V21Z" fill="white"/>
<path id="Vector_2" d="M13.5 13.5H13.4925C13.3309 13.4983 13.1742 13.4445 13.0456 13.3465C12.9171 13.2485 12.8237 13.1117 12.7792 12.9563L11.4345 8.25002H8.25V6.75002H12C12.163 6.74993 12.3216 6.80296 12.4518 6.90107C12.582 6.99918 12.6767 7.13704 12.7215 7.29377L13.527 10.1138L15.7838 2.77877C15.832 2.62631 15.9273 2.49305 16.056 2.39807C16.1847 2.30309 16.3401 2.25127 16.5 2.25002C16.658 2.24765 16.8126 2.29627 16.9408 2.38868C17.069 2.48108 17.164 2.61236 17.2118 2.76302L18.54 6.75002H22.5V8.25002H18C17.8425 8.25006 17.689 8.20053 17.5613 8.10845C17.4335 8.01638 17.338 7.88643 17.2882 7.73702L16.5285 5.45702L14.217 12.9705C14.1698 13.1239 14.0747 13.258 13.9457 13.3533C13.8166 13.4486 13.6604 13.5001 13.5 13.5Z" fill="white"/>
</g>
</svg>
