<svg width="16" height="16" viewBox="0 0 16 16" fill="none" xmlns="http://www.w3.org/2000/svg">
<path d="M6.51296 2.45285C6.21077 2.16955 5.73614 2.18486 5.45285 2.48704C5.16955 2.78923 5.18486 3.26386 5.48704 3.54715L6.51296 2.45285ZM11.3333 8L11.8463 8.54715C11.9975 8.40537 12.0833 8.20731 12.0833 8C12.0833 7.79269 11.9975 7.59463 11.8463 7.45285L11.3333 8ZM5.48704 12.4528C5.18486 12.7361 5.16955 13.2108 5.45285 13.513C5.73614 13.8151 6.21077 13.8305 6.51296 13.5472L5.48704 12.4528ZM5.48704 3.54715L10.8204 8.54715L11.8463 7.45285L6.51296 2.45285L5.48704 3.54715ZM10.8204 7.45285L5.48704 12.4528L6.51296 13.5472L11.8463 8.54715L10.8204 7.45285Z" fill="#B0EEE9"/>
</svg>
