<svg width="24" height="24" viewBox="0 0 24 24" fill="none" xmlns="http://www.w3.org/2000/svg">
<g id="hugeicons:location-05">
<g id="Group">
<path id="Vector" d="M14.5 9C14.5 9.66304 14.2366 10.2989 13.7678 10.7678C13.2989 11.2366 12.663 11.5 12 11.5C11.337 11.5 10.7011 11.2366 10.2322 10.7678C9.76339 10.2989 9.5 9.66304 9.5 9C9.5 8.33696 9.76339 7.70107 10.2322 7.23223C10.7011 6.76339 11.337 6.5 12 6.5C12.663 6.5 13.2989 6.76339 13.7678 7.23223C14.2366 7.70107 14.5 8.33696 14.5 9Z" stroke="#B0EEE9" stroke-width="1.5" stroke-linecap="round" stroke-linejoin="round"/>
<path id="Vector_2" d="M18 20C18 21.105 15.314 22 12 22C8.68599 22 5.99999 21.105 5.99999 20M13.257 17.494C12.9192 17.819 12.4687 18.0005 12 18.0005C11.5313 18.0005 11.0808 17.819 10.743 17.494C7.65399 14.501 3.51499 11.158 5.53299 6.304C6.62599 3.679 9.24599 2 12 2C14.754 2 17.375 3.68 18.467 6.304C20.483 11.151 16.354 14.511 13.257 17.494Z" stroke="#B0EEE9" stroke-width="1.5" stroke-linecap="round" stroke-linejoin="round"/>
</g>
</g>
</svg>
