<svg width="24" height="24" viewBox="0 0 24 24" fill="none" xmlns="http://www.w3.org/2000/svg">
<g id="noun-consent-5590131 1" clip-path="url(#clip0_4402_9940)">
<path id="Vector" d="M12.1875 4.125C12.1873 3.92615 12.1082 3.7355 11.9676 3.59489C11.827 3.45428 11.6364 3.3752 11.4375 3.375H10.3125V2.25C10.3123 2.05115 10.2332 1.8605 10.0926 1.71989C9.952 1.57928 9.76135 1.5002 9.5625 1.5H8.8125C8.61365 1.5002 8.423 1.57928 8.28239 1.71989C8.14178 1.8605 8.0627 2.05115 8.0625 2.25V3.375H6.9375C6.73865 3.3752 6.548 3.45428 6.40739 3.59489C6.26678 3.7355 6.1877 3.92615 6.1875 4.125V4.875C6.1877 5.07385 6.26678 5.2645 6.40739 5.40511C6.548 5.54572 6.73865 5.6248 6.9375 5.625H8.0625V6.75C8.0627 6.94885 8.14178 7.1395 8.28239 7.28011C8.423 7.42072 8.61365 7.4998 8.8125 7.5H9.5625C9.76135 7.4998 9.952 7.42072 10.0926 7.28011C10.2332 7.1395 10.3123 6.94885 10.3125 6.75V5.625H11.4375C11.6364 5.6248 11.827 5.54572 11.9676 5.40511C12.1082 5.2645 12.1873 5.07385 12.1875 4.875V4.125ZM11.4375 4.875H9.9375C9.83805 4.87501 9.74267 4.91452 9.67234 4.98484C9.60202 5.05517 9.56251 5.15055 9.5625 5.25V6.75H8.8125V5.25C8.81249 5.15055 8.77298 5.05517 8.70266 4.98484C8.63233 4.91452 8.53695 4.87501 8.4375 4.875H6.9375V4.125H8.4375C8.53695 4.12499 8.63233 4.08548 8.70266 4.01516C8.77298 3.94483 8.81249 3.84945 8.8125 3.75V2.25H9.5625V3.75C9.56251 3.84945 9.60202 3.94483 9.67234 4.01516C9.74267 4.08548 9.83805 4.12499 9.9375 4.125L11.4375 4.12445V4.875Z" fill="white"/>
<path id="Vector_2" d="M17.625 22.9202C17.6265 23.1517 17.5693 23.2381 17.558 23.2454C17.5478 23.2489 17.5371 23.2505 17.5263 23.25H5.55743C5.48832 23.2572 5.41916 23.2368 5.36498 23.1933C5.31081 23.1498 5.27599 23.0867 5.26812 23.0176L5.25567 20.6516C5.23485 20.3844 5.11229 20.1355 4.91328 19.9561C4.71427 19.7767 4.45399 19.6806 4.18616 19.6875L1.1911 19.6877C1.09388 19.6726 1.00269 19.631 0.927508 19.5676C0.852325 19.5041 0.796047 19.4212 0.764831 19.3279L0.75 1.11237C0.753615 1.00691 0.796829 0.906686 0.871033 0.831666C0.913056 0.784993 0.9711 0.75584 1.03363 0.75H17.3835C17.5312 0.75 17.6239 0.914062 17.625 1.06402V5.02012C17.7213 5.00255 17.8186 4.99144 17.9163 4.98687L18.3301 4.96966C18.3453 4.96911 18.36 4.96963 18.375 4.96966V1.06128C18.3803 0.926484 18.3589 0.791962 18.312 0.665486C18.2651 0.53901 18.1936 0.423085 18.1016 0.324407C18.0096 0.22573 17.899 0.146255 17.7761 0.0905743C17.6532 0.0348932 17.5205 0.00410907 17.3857 0L1.03052 0C0.900592 0.00246328 0.772445 0.0306593 0.653485 0.0829574C0.534526 0.135256 0.427114 0.210618 0.337463 0.304688C0.124135 0.520919 0.00313906 0.81156 0 1.11529L0.0148312 19.3308C0.0306289 19.5249 0.094375 19.712 0.200346 19.8753C0.306317 20.0387 0.451196 20.1732 0.621975 20.2667L4.78033 23.7052C4.81472 23.7337 4.85392 23.7557 4.89608 23.7704C5.08273 23.9193 5.31447 24.0002 5.55322 24H17.5283C17.633 24.0017 17.737 23.9823 17.8341 23.9429C17.9311 23.9036 18.0192 23.8451 18.0932 23.7709C18.1946 23.6546 18.2717 23.5192 18.3201 23.3727C18.3685 23.2262 18.3872 23.0715 18.375 22.9177V22.7754C18.1219 22.7744 17.8716 22.7603 17.625 22.7369V22.9202ZM4.50586 20.6646L4.51559 22.5132L2.00523 20.4375L4.17755 20.4373C4.33301 20.441 4.50201 20.5367 4.50586 20.6646Z" fill="white"/>
<path id="Vector_3" d="M23.9954 9.43925C23.9931 9.32835 23.9682 9.21909 23.9222 9.11817C23.8761 9.01726 23.81 8.92681 23.7277 8.8524C23.4282 8.60455 23.0462 8.47887 22.658 8.50046L21.9726 8.49926V8.3472C21.9651 8.20941 21.9304 8.07446 21.8707 7.95007C21.8109 7.82568 21.7272 7.7143 21.6244 7.62228C21.3646 7.3705 21.0192 7.22633 20.6576 7.21873C20.6495 7.21873 20.6414 7.21892 20.6336 7.21892L20.2313 7.22698C20.0494 7.23393 19.8716 7.28317 19.712 7.37079C19.7111 7.04332 19.7097 6.83225 19.7076 6.80766C19.6194 5.76689 18.6952 5.73082 18.3916 5.7191C18.3816 5.71855 18.3715 5.71891 18.3614 5.7191L17.948 5.73632C17.2633 5.76506 16.6946 6.28966 16.7056 6.87468V7.33171C16.5213 7.24996 16.3206 7.21168 16.1191 7.21984L15.6767 7.23778C14.9868 7.26561 14.4353 7.79405 14.447 8.40856V13.3692C14.4244 13.3631 14.4025 13.3554 14.3794 13.3504C14.055 13.2861 13.7183 13.3349 13.4254 13.4884L12.917 13.7448C12.2087 14.0433 11.8617 14.5992 12.0534 15.1316C12.0556 15.1377 12.058 15.1437 12.0604 15.1496L13.7063 19.073C13.9206 19.658 14.2554 20.1915 14.6891 20.6389C14.9395 20.8964 15.2243 21.118 15.5354 21.2975C16.2013 21.7908 17.2802 22.0254 18.401 22.0254C19.8878 22.0254 21.4484 21.6128 22.2158 20.8453C23.2665 19.9208 23.908 18.6177 24 17.2212L23.9954 9.43925ZM21.7077 20.2936C21.702 20.2987 21.6963 20.304 21.691 20.3095C20.5953 21.4173 17.2262 21.6385 15.9688 20.685C15.956 20.6754 15.9426 20.6665 15.9287 20.6585C15.6709 20.5119 15.435 20.3297 15.2279 20.1174C14.869 19.7466 14.5915 19.305 14.4129 18.8209C14.41 18.8123 14.4067 18.8036 14.4032 18.7952L12.7573 14.8718C12.7214 14.7488 12.9252 14.5532 13.2173 14.4322C13.2259 14.4287 13.2345 14.4249 13.2427 14.4207L13.7633 14.1581C13.9026 14.0823 14.0635 14.0559 14.2198 14.0832C14.2941 14.0933 14.3649 14.1209 14.4265 14.1637C14.488 14.2066 14.5385 14.2634 14.5737 14.3296L15.2684 16.2601C15.3711 16.3856 15.5086 16.4781 15.6635 16.5258C16.0307 16.607 16.3857 16.7358 16.7196 16.9087C16.7908 16.8072 16.8703 16.7119 16.9574 16.6238L17.2396 16.3415C16.8235 16.1003 16.3737 15.9226 15.9051 15.8145L15.2794 14.0757C15.2574 14.0172 15.2298 13.961 15.197 13.9079V8.40141C15.2159 8.28157 15.2785 8.17296 15.3726 8.09646C15.4668 8.01997 15.5859 7.98099 15.7071 7.98703L16.1495 7.96909C16.3055 7.96537 16.4568 8.02266 16.5712 8.12876C16.6433 8.18968 16.6901 8.27537 16.7023 8.36899L16.7056 13.2189C16.7056 13.3183 16.7452 13.4137 16.8155 13.484C16.8858 13.5543 16.9812 13.5937 17.0806 13.5937C17.1298 13.5937 17.1788 13.584 17.2243 13.5652C17.2697 13.5463 17.3111 13.5187 17.3459 13.4839C17.3807 13.449 17.4083 13.4077 17.4271 13.3622C17.4459 13.3167 17.4556 13.268 17.4556 13.2187V6.86754C17.4525 6.70568 17.6936 6.49767 17.9793 6.48559L18.377 6.46911C18.9014 6.49217 18.9404 6.6372 18.9594 6.85876C18.9655 7.02575 18.9649 12.9347 18.9589 13.1796C18.958 13.2839 18.9968 13.3847 19.0673 13.4615C19.1379 13.5384 19.235 13.5857 19.339 13.5937C19.4385 13.5937 19.5339 13.5542 19.6042 13.4839C19.6745 13.4136 19.714 13.3182 19.714 13.2187L19.7142 8.48252C19.7422 8.35469 19.8079 8.23819 19.9028 8.14807C19.9977 8.05795 20.1174 7.99835 20.2465 7.97697L20.6488 7.96891C20.7338 7.96967 20.8179 7.9872 20.8961 8.02051C20.9743 8.05382 21.0452 8.10224 21.1047 8.163C21.1644 8.21178 21.206 8.27925 21.2226 8.35453V13.194C21.2226 13.2935 21.2621 13.3888 21.3325 13.4592C21.4028 13.5295 21.4982 13.569 21.5976 13.569C21.6971 13.569 21.7925 13.5295 21.8628 13.4592C21.9331 13.3888 21.9726 13.2935 21.9726 13.194V9.24925L22.6734 9.2501C22.8651 9.23629 23.0558 9.28864 23.2135 9.39842C23.245 9.42808 23.2452 9.44383 23.2454 9.44602L23.2503 17.2062C23.1643 18.3988 22.6097 19.5088 21.7077 20.2936Z" fill="white"/>
<path id="Vector_4" d="M19.1227 15.5189L17.4876 17.154C17.2121 17.4295 17.0574 17.803 17.0574 18.1925C17.0574 18.5821 17.2121 18.9556 17.4875 19.2311C17.7629 19.5065 18.1365 19.6613 18.526 19.6613C18.9155 19.6613 19.2891 19.5066 19.5646 19.2312L21.1999 17.5959C21.4753 17.3204 21.63 16.9468 21.63 16.5573C21.63 16.1678 21.4752 15.7942 21.1998 15.5188C20.9243 15.2434 20.5508 15.0887 20.1612 15.0887C19.7717 15.0887 19.3981 15.2435 19.1227 15.5189ZM18.0179 18.7009C17.9511 18.6342 17.8981 18.5549 17.862 18.4677C17.8259 18.3805 17.8073 18.287 17.8073 18.1926C17.8073 18.0982 17.8259 18.0047 17.862 17.9175C17.8981 17.8303 17.9511 17.7511 18.0179 17.6843L18.5261 17.1761L19.5426 18.1926L19.0343 18.7009C18.8994 18.8355 18.7166 18.9111 18.5261 18.9111C18.3355 18.9111 18.1528 18.8355 18.0179 18.7009ZM20.6696 17.0656L20.0729 17.6623L19.0563 16.6458L19.653 16.0492C19.7878 15.9144 19.9706 15.8386 20.1612 15.8386C20.3519 15.8386 20.5347 15.9143 20.6695 16.0491C20.8043 16.1839 20.8801 16.3667 20.8801 16.5573C20.8801 16.748 20.8044 16.9308 20.6696 17.0656Z" fill="white"/>
<path id="Vector_5" d="M5.4375 9.1875H4.6875C4.58804 9.1875 4.49266 9.22701 4.42234 9.29733C4.35201 9.36766 4.3125 9.46304 4.3125 9.5625C4.3125 9.66196 4.35201 9.75734 4.42234 9.82767C4.49266 9.89799 4.58804 9.9375 4.6875 9.9375H5.4375C5.53696 9.9375 5.63234 9.89799 5.70266 9.82767C5.77299 9.75734 5.8125 9.66196 5.8125 9.5625C5.8125 9.46304 5.77299 9.36766 5.70266 9.29733C5.63234 9.22701 5.53696 9.1875 5.4375 9.1875Z" fill="white"/>
<path id="Vector_6" d="M3.375 9.1875H2.625C2.52554 9.1875 2.43016 9.22701 2.35984 9.29733C2.28951 9.36766 2.25 9.46304 2.25 9.5625C2.25 9.66196 2.28951 9.75734 2.35984 9.82767C2.43016 9.89799 2.52554 9.9375 2.625 9.9375H3.375C3.47446 9.9375 3.56984 9.89799 3.64016 9.82767C3.71049 9.75734 3.75 9.66196 3.75 9.5625C3.75 9.46304 3.71049 9.36766 3.64016 9.29733C3.56984 9.22701 3.47446 9.1875 3.375 9.1875Z" fill="white"/>
<path id="Vector_7" d="M7.5 9.1875H6.75C6.65054 9.1875 6.55516 9.22701 6.48483 9.29733C6.41451 9.36766 6.375 9.46304 6.375 9.5625C6.375 9.66196 6.41451 9.75734 6.48483 9.82767C6.55516 9.89799 6.65054 9.9375 6.75 9.9375H7.5C7.59946 9.9375 7.69484 9.89799 7.76517 9.82767C7.83549 9.75734 7.875 9.66196 7.875 9.5625C7.875 9.46304 7.83549 9.36766 7.76517 9.29733C7.69484 9.22701 7.59946 9.1875 7.5 9.1875Z" fill="white"/>
<path id="Vector_8" d="M13.697 9.18846C13.6938 9.18838 13.6908 9.1875 13.6875 9.1875H12.9375C12.838 9.1875 12.7427 9.22701 12.6723 9.29733C12.602 9.36766 12.5625 9.46304 12.5625 9.5625C12.5625 9.66196 12.602 9.75734 12.6723 9.82767C12.7427 9.89799 12.838 9.9375 12.9375 9.9375H13.6875C13.6908 9.9375 13.6938 9.93662 13.697 9.93654V9.18846Z" fill="white"/>
<path id="Vector_9" d="M11.625 9.1875H10.875C10.7755 9.1875 10.6802 9.22701 10.6098 9.29733C10.5395 9.36766 10.5 9.46304 10.5 9.5625C10.5 9.66196 10.5395 9.75734 10.6098 9.82767C10.6802 9.89799 10.7755 9.9375 10.875 9.9375H11.625C11.7245 9.9375 11.8198 9.89799 11.8902 9.82767C11.9605 9.75734 12 9.66196 12 9.5625C12 9.46304 11.9605 9.36766 11.8902 9.29733C11.8198 9.22701 11.7245 9.1875 11.625 9.1875Z" fill="white"/>
<path id="Vector_10" d="M9.5625 9.1875H8.8125C8.71304 9.1875 8.61766 9.22701 8.54733 9.29733C8.47701 9.36766 8.4375 9.46304 8.4375 9.5625C8.4375 9.66196 8.47701 9.75734 8.54733 9.82767C8.61766 9.89799 8.71304 9.9375 8.8125 9.9375H9.5625C9.66196 9.9375 9.75734 9.89799 9.82767 9.82767C9.89799 9.75734 9.9375 9.66196 9.9375 9.5625C9.9375 9.46304 9.89799 9.36766 9.82767 9.29733C9.75734 9.22701 9.66196 9.1875 9.5625 9.1875Z" fill="white"/>
<path id="Vector_11" d="M3.375 11.8125H2.625C2.52554 11.8125 2.43016 11.852 2.35984 11.9223C2.28951 11.9927 2.25 12.088 2.25 12.1875C2.25 12.287 2.28951 12.3823 2.35984 12.4527C2.43016 12.523 2.52554 12.5625 2.625 12.5625H3.375C3.47446 12.5625 3.56984 12.523 3.64016 12.4527C3.71049 12.3823 3.75 12.287 3.75 12.1875C3.75 12.088 3.71049 11.9927 3.64016 11.9223C3.56984 11.852 3.47446 11.8125 3.375 11.8125Z" fill="white"/>
<path id="Vector_12" d="M5.4375 11.8125H4.6875C4.58804 11.8125 4.49266 11.852 4.42234 11.9223C4.35201 11.9927 4.3125 12.088 4.3125 12.1875C4.3125 12.287 4.35201 12.3823 4.42234 12.4527C4.49266 12.523 4.58804 12.5625 4.6875 12.5625H5.4375C5.53696 12.5625 5.63234 12.523 5.70266 12.4527C5.77299 12.3823 5.8125 12.287 5.8125 12.1875C5.8125 12.088 5.77299 11.9927 5.70266 11.9223C5.63234 11.852 5.53696 11.8125 5.4375 11.8125Z" fill="white"/>
<path id="Vector_13" d="M7.5 11.8125H6.75C6.65054 11.8125 6.55516 11.852 6.48483 11.9223C6.41451 11.9927 6.375 12.088 6.375 12.1875C6.375 12.287 6.41451 12.3823 6.48483 12.4527C6.55516 12.523 6.65054 12.5625 6.75 12.5625H7.5C7.59946 12.5625 7.69484 12.523 7.76517 12.4527C7.83549 12.3823 7.875 12.287 7.875 12.1875C7.875 12.088 7.83549 11.9927 7.76517 11.9223C7.69484 11.852 7.59946 11.8125 7.5 11.8125Z" fill="white"/>
<path id="Vector_14" d="M12.9375 11.8125C12.838 11.8125 12.7427 11.852 12.6723 11.9223C12.602 11.9927 12.5625 12.088 12.5625 12.1875C12.5625 12.287 12.602 12.3823 12.6723 12.4527C12.7427 12.523 12.838 12.5625 12.9375 12.5625H13.6875C13.6908 12.5625 13.6938 12.5616 13.697 12.5615V11.8135C13.6938 11.8134 13.6908 11.8125 13.6875 11.8125H12.9375Z" fill="white"/>
<path id="Vector_15" d="M11.625 11.8125H10.875C10.7755 11.8125 10.6802 11.852 10.6098 11.9223C10.5395 11.9927 10.5 12.088 10.5 12.1875C10.5 12.287 10.5395 12.3823 10.6098 12.4527C10.6802 12.523 10.7755 12.5625 10.875 12.5625H11.625C11.7245 12.5625 11.8198 12.523 11.8902 12.4527C11.9605 12.3823 12 12.287 12 12.1875C12 12.088 11.9605 11.9927 11.8902 11.9223C11.8198 11.852 11.7245 11.8125 11.625 11.8125Z" fill="white"/>
<path id="Vector_16" d="M9.5625 11.8125H8.8125C8.71304 11.8125 8.61766 11.852 8.54733 11.9223C8.47701 11.9927 8.4375 12.088 8.4375 12.1875C8.4375 12.287 8.47701 12.3823 8.54733 12.4527C8.61766 12.523 8.71304 12.5625 8.8125 12.5625H9.5625C9.66196 12.5625 9.75734 12.523 9.82767 12.4527C9.89799 12.3823 9.9375 12.287 9.9375 12.1875C9.9375 12.088 9.89799 11.9927 9.82767 11.9223C9.75734 11.852 9.66196 11.8125 9.5625 11.8125Z" fill="white"/>
<path id="Vector_17" d="M3.375 14.4375H2.625C2.52554 14.4375 2.43016 14.477 2.35984 14.5473C2.28951 14.6177 2.25 14.713 2.25 14.8125C2.25 14.912 2.28951 15.0073 2.35984 15.0777C2.43016 15.148 2.52554 15.1875 2.625 15.1875H3.375C3.47446 15.1875 3.56984 15.148 3.64016 15.0777C3.71049 15.0073 3.75 14.912 3.75 14.8125C3.75 14.713 3.71049 14.6177 3.64016 14.5473C3.56984 14.477 3.47446 14.4375 3.375 14.4375Z" fill="white"/>
<path id="Vector_18" d="M5.4375 14.4375H4.6875C4.58804 14.4375 4.49266 14.477 4.42234 14.5473C4.35201 14.6177 4.3125 14.713 4.3125 14.8125C4.3125 14.912 4.35201 15.0073 4.42234 15.0777C4.49266 15.148 4.58804 15.1875 4.6875 15.1875H5.4375C5.53696 15.1875 5.63234 15.148 5.70266 15.0777C5.77299 15.0073 5.8125 14.912 5.8125 14.8125C5.8125 14.713 5.77299 14.6177 5.70266 14.5473C5.63234 14.477 5.53696 14.4375 5.4375 14.4375Z" fill="white"/>
<path id="Vector_19" d="M10.875 14.4375C10.7755 14.4375 10.6802 14.477 10.6098 14.5473C10.5395 14.6177 10.5 14.713 10.5 14.8125C10.5 14.912 10.5395 15.0073 10.6098 15.0777C10.6802 15.148 10.7755 15.1875 10.875 15.1875H11.2922C11.2373 14.94 11.2413 14.6831 11.3039 14.4375H10.875Z" fill="white"/>
<path id="Vector_20" d="M7.5 14.4375H6.75C6.65054 14.4375 6.55516 14.477 6.48483 14.5473C6.41451 14.6177 6.375 14.713 6.375 14.8125C6.375 14.912 6.41451 15.0073 6.48483 15.0777C6.55516 15.148 6.65054 15.1875 6.75 15.1875H7.5C7.59946 15.1875 7.69484 15.148 7.76517 15.0777C7.83549 15.0073 7.875 14.912 7.875 14.8125C7.875 14.713 7.83549 14.6177 7.76517 14.5473C7.69484 14.477 7.59946 14.4375 7.5 14.4375Z" fill="white"/>
<path id="Vector_21" d="M9.5625 14.4375H8.8125C8.71304 14.4375 8.61766 14.477 8.54733 14.5473C8.47701 14.6177 8.4375 14.713 8.4375 14.8125C8.4375 14.912 8.47701 15.0073 8.54733 15.0777C8.61766 15.148 8.71304 15.1875 8.8125 15.1875H9.5625C9.66196 15.1875 9.75734 15.148 9.82767 15.0777C9.89799 15.0073 9.9375 14.912 9.9375 14.8125C9.9375 14.713 9.89799 14.6177 9.82767 14.5473C9.75734 14.477 9.66196 14.4375 9.5625 14.4375Z" fill="white"/>
<path id="Vector_22" d="M5.4375 17.0625H4.6875C4.58804 17.0625 4.49266 17.102 4.42234 17.1723C4.35201 17.2427 4.3125 17.338 4.3125 17.4375C4.3125 17.537 4.35201 17.6323 4.42234 17.7027C4.49266 17.773 4.58804 17.8125 4.6875 17.8125H5.4375C5.53696 17.8125 5.63234 17.773 5.70266 17.7027C5.77299 17.6323 5.8125 17.537 5.8125 17.4375C5.8125 17.338 5.77299 17.2427 5.70266 17.1723C5.63234 17.102 5.53696 17.0625 5.4375 17.0625Z" fill="white"/>
<path id="Vector_23" d="M3.375 17.0625H2.625C2.52554 17.0625 2.43016 17.102 2.35984 17.1723C2.28951 17.2427 2.25 17.338 2.25 17.4375C2.25 17.537 2.28951 17.6323 2.35984 17.7027C2.43016 17.773 2.52554 17.8125 2.625 17.8125H3.375C3.47446 17.8125 3.56984 17.773 3.64016 17.7027C3.71049 17.6323 3.75 17.537 3.75 17.4375C3.75 17.338 3.71049 17.2427 3.64016 17.1723C3.56984 17.102 3.47446 17.0625 3.375 17.0625Z" fill="white"/>
<path id="Vector_24" d="M10.875 17.8125H11.625C11.7245 17.8125 11.8198 17.773 11.8902 17.7027C11.9605 17.6323 12 17.537 12 17.4375C12 17.338 11.9605 17.2427 11.8902 17.1723C11.8198 17.102 11.7245 17.0625 11.625 17.0625H10.875C10.7755 17.0625 10.6802 17.102 10.6098 17.1723C10.5395 17.2427 10.5 17.338 10.5 17.4375C10.5 17.537 10.5395 17.6323 10.6098 17.7027C10.6802 17.773 10.7755 17.8125 10.875 17.8125Z" fill="white"/>
<path id="Vector_25" d="M9.5625 17.0625H8.8125C8.71304 17.0625 8.61766 17.102 8.54733 17.1723C8.47701 17.2427 8.4375 17.338 8.4375 17.4375C8.4375 17.537 8.47701 17.6323 8.54733 17.7027C8.61766 17.773 8.71304 17.8125 8.8125 17.8125H9.5625C9.66196 17.8125 9.75734 17.773 9.82767 17.7027C9.89799 17.6323 9.9375 17.537 9.9375 17.4375C9.9375 17.338 9.89799 17.2427 9.82767 17.1723C9.75734 17.102 9.66196 17.0625 9.5625 17.0625Z" fill="white"/>
<path id="Vector_26" d="M7.5 17.0625H6.75C6.65054 17.0625 6.55516 17.102 6.48483 17.1723C6.41451 17.2427 6.375 17.338 6.375 17.4375C6.375 17.537 6.41451 17.6323 6.48483 17.7027C6.55516 17.773 6.65054 17.8125 6.75 17.8125H7.5C7.59946 17.8125 7.69484 17.773 7.76517 17.7027C7.83549 17.6323 7.875 17.537 7.875 17.4375C7.875 17.338 7.83549 17.2427 7.76517 17.1723C7.69484 17.102 7.59946 17.0625 7.5 17.0625Z" fill="white"/>
</g>
<defs>
<clipPath id="clip0_4402_9940">
<rect width="24" height="24" fill="white"/>
</clipPath>
</defs>
</svg>
