<svg width="25" height="24" viewBox="0 0 25 24" fill="none" xmlns="http://www.w3.org/2000/svg">
<g id="mage:notification-bell-check">
<g id="Group">
<path id="Vector" d="M12.4619 17.986H19.2719C19.5371 18.0008 19.8017 17.9475 20.0404 17.8311C20.2791 17.7147 20.4841 17.5391 20.6357 17.321C20.7873 17.1029 20.8805 16.8496 20.9065 16.5853C20.9324 16.321 20.8902 16.0544 20.7839 15.811C20.4239 14.723 18.9889 13.418 18.9889 12.134C18.9889 9.28397 18.9889 8.53397 17.5859 6.85797C17.1313 6.3184 16.5676 5.88115 15.9319 5.57497L15.1489 5.19497C15.0175 5.11567 14.9042 5.00976 14.8162 4.88403C14.7282 4.75831 14.6674 4.61557 14.6379 4.46497C14.5596 3.95738 14.2912 3.49856 13.8871 3.18156C13.483 2.86457 12.9735 2.71313 12.4619 2.75797C11.9595 2.72804 11.4641 2.8863 11.0721 3.20191C10.6801 3.51751 10.4198 3.96781 10.3419 4.46497C10.3067 4.62067 10.2378 4.76675 10.14 4.89289C10.0422 5.01904 9.91792 5.12216 9.77589 5.19497L8.99189 5.57497C8.35692 5.88139 7.79394 6.31862 7.33989 6.85797C5.93689 8.53397 5.93689 9.28397 5.93689 12.134C5.93689 13.418 4.56689 14.592 4.20689 15.745C3.98989 16.442 3.86989 17.986 5.68689 17.986H12.4619Z" stroke="white" stroke-width="1.5" stroke-linecap="round" stroke-linejoin="round"/>
<path id="Vector_2" d="M15.726 17.986C15.7351 18.4171 15.6569 18.8456 15.4961 19.2456C15.3353 19.6457 15.0952 20.0091 14.7902 20.314C14.4853 20.6188 14.1218 20.8588 13.7217 21.0195C13.3216 21.1802 12.893 21.2583 12.462 21.249C12.031 21.2581 11.6026 21.18 11.2027 21.0192C10.8027 20.8584 10.4394 20.6184 10.1347 20.3136C9.82991 20.0087 9.58999 19.6453 9.42935 19.2453C9.26872 18.8453 9.19069 18.4169 9.19996 17.986M9.99996 11.198L11.407 12.605C11.4566 12.6548 11.5156 12.6944 11.5805 12.7214C11.6455 12.7484 11.7151 12.7623 11.7855 12.7623C11.8558 12.7623 11.9254 12.7484 11.9904 12.7214C12.0554 12.6944 12.1143 12.6548 12.164 12.605L15 9.76898" stroke="white" stroke-width="1.5" stroke-linecap="round" stroke-linejoin="round"/>
</g>
</g>
</svg>
