<svg width="25" height="24" viewBox="0 0 25 24" fill="none" xmlns="http://www.w3.org/2000/svg">
<g id="hugeicons:touch-09">
<path id="Vector" d="M12.612 8.68502L13.465 3.76102C13.606 2.94502 13.071 2.16702 12.27 2.02302C12.0779 1.98997 11.8812 1.9953 11.6912 2.03869C11.5011 2.08208 11.3216 2.16267 11.1629 2.27582C11.0042 2.38896 10.8695 2.53242 10.7665 2.69792C10.6635 2.86341 10.5944 3.04765 10.563 3.24002L8.857 13.088L8.716 13.851L6.806 11.837C6.64472 11.6692 6.44902 11.5382 6.23235 11.4532C6.01569 11.3681 5.78318 11.331 5.55079 11.3443C5.31841 11.3576 5.09165 11.421 4.8861 11.5302C4.68055 11.6395 4.50108 11.7919 4.36 11.977C4.13185 12.2728 4.00554 12.6344 3.99995 13.0079C3.99436 13.3813 4.1098 13.7466 4.329 14.049L7.256 18.067C7.92 18.979 8.253 19.434 8.652 19.789C9.262 20.329 9.993 20.706 10.779 20.883C11.294 21 11.848 21 12.955 21H15.289C17.599 21 19.59 19.324 20.049 16.993L20.892 12.709L20.977 12.217C21.0475 11.8283 20.9614 11.4274 20.7376 11.1018C20.5137 10.7763 20.1702 10.5524 19.782 10.479C19.5899 10.446 19.3932 10.4513 19.2032 10.4947C19.0131 10.5381 18.8336 10.6187 18.6749 10.7318C18.5162 10.845 18.3815 10.9884 18.2785 11.1539C18.1755 11.3194 18.1064 11.5037 18.075 11.696L17.99 12.188M12.612 8.68502L12.356 10.162M12.612 8.68502C12.6434 8.49265 12.7125 8.30841 12.8155 8.14292C12.9185 7.97742 13.0532 7.83396 13.2119 7.72082C13.3706 7.60767 13.5501 7.52707 13.7402 7.48369C13.9302 7.4403 14.1269 7.43497 14.319 7.46802C14.7068 7.54211 15.0498 7.76615 15.2736 8.09152C15.4973 8.41689 15.5837 8.81735 15.514 9.20602L15.344 10.19M15.344 10.19L15.258 10.683M15.344 10.19C15.3755 9.99774 15.4448 9.8136 15.5478 9.64823C15.6508 9.48285 15.7855 9.3395 15.9442 9.22646C16.1029 9.11341 16.2824 9.0329 16.4724 8.98958C16.6623 8.94625 16.859 8.94096 17.051 8.97402C17.852 9.11802 18.387 9.89502 18.246 10.711L18.161 11.204" stroke="white" stroke-width="1.5" stroke-linecap="round" stroke-linejoin="round"/>
</g>
</svg>
