<svg width="28" height="29" viewBox="0 0 28 29" fill="none" xmlns="http://www.w3.org/2000/svg">
<g id="stash:location">
<path id="Vector" d="M16.625 18.9998C16.625 16.6361 18.6247 14.7916 21 14.7916C23.3753 14.7916 25.375 16.635 25.375 18.9998C25.375 20.9621 24.3542 22.6561 23.4313 23.7995C22.9147 24.4373 22.3381 25.0241 21.7093 25.5518L21.5833 25.6545L21.5483 25.6825L21.5367 25.6918L21.5332 25.6941H21.532L20.5147 25.728L20.5123 25.7256L20.5088 25.7233L20.4972 25.7151L20.4587 25.6895L20.3292 25.5961C19.6865 25.1105 19.1 24.5549 18.5803 23.9395C17.6353 22.8125 16.6262 21.1185 16.6262 18.9998M20.5147 25.728L21.035 26.0745L21.532 25.6965L20.5147 25.728ZM20.9743 23.8706C21.2765 23.5906 21.6743 23.1905 22.071 22.7005C22.8982 21.6761 23.6262 20.3706 23.6262 18.9998C23.6262 17.6815 22.4922 16.5416 21.0012 16.5416C19.5113 16.5416 18.3762 17.6815 18.3762 18.9998C18.3762 20.548 19.117 21.8546 19.922 22.8125C20.2428 23.1938 20.5948 23.5477 20.9743 23.8706ZM21 19.4583C21.0774 19.4583 21.1515 19.4276 21.2062 19.3729C21.2609 19.3182 21.2917 19.244 21.2917 19.1666C21.2917 19.0893 21.2609 19.0151 21.2062 18.9604C21.1515 18.9057 21.0774 18.875 21 18.875C20.9226 18.875 20.8485 18.9057 20.7938 18.9604C20.7391 19.0151 20.7083 19.0893 20.7083 19.1666C20.7083 19.244 20.7391 19.3182 20.7938 19.3729C20.8485 19.4276 20.9226 19.4583 21 19.4583ZM19.5417 19.1666C19.5417 18.7799 19.6953 18.4089 19.9688 18.1354C20.2423 17.8619 20.6132 17.7083 21 17.7083C21.3868 17.7083 21.7577 17.8619 22.0312 18.1354C22.3047 18.4089 22.4583 18.7799 22.4583 19.1666C22.4583 19.5534 22.3047 19.9243 22.0312 20.1978C21.7577 20.4713 21.3868 20.625 21 20.625C20.6132 20.625 20.2423 20.4713 19.9688 20.1978C19.6953 19.9243 19.5417 19.5534 19.5417 19.1666Z" fill="white"/>
<path id="Vector_2" fill-rule="evenodd" clip-rule="evenodd" d="M11.6667 4.875C10.1465 4.875 8.95185 6.072 8.95185 7.5C8.95185 8.928 10.1453 10.125 11.6667 10.125C13.188 10.125 14.3827 8.928 14.3827 7.5C14.3827 6.072 13.188 4.875 11.6667 4.875ZM7.20185 7.5C7.20185 5.06167 9.22251 3.125 11.669 3.125C14.1143 3.125 16.135 5.06167 16.135 7.5C16.135 9.93833 14.1143 11.875 11.669 11.875C9.22368 11.875 7.19835 9.93833 7.19835 7.5M8.71501 14.4603C8.50151 14.3238 8.34168 14.3157 8.26701 14.3355C8.09901 14.3822 7.93218 14.4319 7.76651 14.4848L6.61851 14.8523C6.22522 14.9734 5.86557 15.1845 5.56808 15.4689C5.27059 15.7532 5.04345 16.1029 4.90468 16.4903C4.87361 16.5937 4.85367 16.7001 4.84518 16.8077L4.38901 21.1232L4.38668 21.1383C4.29918 21.7532 4.62701 22.2233 5.12518 22.34C6.38168 22.6317 8.49801 22.9583 11.6655 22.9583C11.8976 22.9583 12.1201 23.0505 12.2842 23.2146C12.4483 23.3787 12.5405 23.6013 12.5405 23.8333C12.5405 24.0654 12.4483 24.288 12.2842 24.4521C12.1201 24.6161 11.8976 24.7083 11.6655 24.7083C8.37785 24.7083 6.12735 24.3677 4.72968 24.0433C3.22585 23.6945 2.46401 22.2817 2.65185 20.9085L3.10451 16.6233C3.12551 16.4227 3.16285 16.1742 3.25151 15.9187C3.47905 15.2745 3.8535 14.6923 4.34518 14.218C4.83687 13.7437 5.43226 13.3905 6.08418 13.1863L7.23335 12.8177C7.42235 12.7578 7.61212 12.7014 7.80268 12.6485C8.51551 12.4525 9.19335 12.687 9.66468 12.9915C10.0963 13.2715 10.801 13.6087 11.6655 13.6087C12.5288 13.6087 13.2335 13.2703 13.6652 12.9903C14.1353 12.687 14.8143 12.4525 15.5272 12.6485C15.7177 12.7014 15.9075 12.7578 16.0965 12.8177L17.2457 13.1863C17.3574 13.2195 17.4613 13.2746 17.5514 13.3485C17.6414 13.4224 17.7159 13.5135 17.7703 13.6165C17.8247 13.7195 17.858 13.8324 17.8682 13.9484C17.8784 14.0645 17.8653 14.1814 17.8297 14.2923C17.7941 14.4033 17.7368 14.506 17.661 14.5944C17.5852 14.6829 17.4925 14.7554 17.3883 14.8075C17.2841 14.8597 17.1706 14.8905 17.0543 14.8982C16.9381 14.9059 16.8215 14.8903 16.7113 14.8523L15.5633 14.4848C15.3972 14.4317 15.2299 14.3819 15.0617 14.3355C14.9882 14.3157 14.8283 14.3238 14.616 14.4603C14.0175 14.8477 12.9827 15.3587 11.6643 15.3587C10.346 15.3587 9.31351 14.8477 8.71501 14.4603Z" fill="white"/>
</g>
</svg>
