<svg width="28" height="29" viewBox="0 0 28 29" fill="none" xmlns="http://www.w3.org/2000/svg">
<g id="game-icons:bugle-call">
<path id="Vector" d="M18.2872 2.5L17.3058 6.98687L20.9082 2.5H18.2872ZM26 3.4381L19.8949 10.0948L26 7.68972V3.4381ZM10.3771 5.70197C10.3438 5.70247 10.3111 5.70368 10.2783 5.70513C9.79342 5.72632 9.34172 5.83742 8.96868 6.08632C8.10381 6.66326 8.39283 7.95168 7.8073 9.25385C5.80675 13.7027 3.78581 16.9292 2 19.3102V24.5C5.1396 23.4284 9.81575 22.318 16.6494 22.0949C18.0833 22.0482 19.1847 22.7266 20.0445 22.153C22.1673 20.737 21.3988 16.0047 18.3479 11.5695C18.1572 11.2924 17.9796 11.0103 17.7806 10.749C15.3946 7.61502 12.4721 5.67431 10.377 5.70207L10.3771 5.70197ZM10.103 6.93195C9.7586 7.62942 10.082 9.13387 10.9156 10.9859C10.6525 10.0508 10.6766 9.37223 11.0526 9.14717C11.8747 8.65508 14.0633 10.5114 15.9405 13.2937C17.8177 16.0758 18.6728 18.7302 17.8508 19.2223C17.5126 19.4247 16.9428 19.2293 16.2592 18.736C17.6722 20.1463 18.9477 20.9705 19.7307 20.9276C19.6397 21.0868 19.5434 21.2411 19.3994 21.3372C18.0279 22.2521 14.7215 19.8185 12.0245 15.898C9.32744 11.9774 8.25839 8.04917 9.62982 7.13432C9.77038 7.04064 9.9247 6.9573 10.103 6.93195ZM26 12.7336L21.6824 14.111L26 14.7558V12.7336Z" fill="white"/>
</g>
</svg>
