<svg width="24" height="24" viewBox="0 0 24 24" fill="none" xmlns="http://www.w3.org/2000/svg">
<g id="hugeicons:medicine-02">
<path id="Vector" d="M20.193 12.9991C20.5932 13.6817 20.8544 14.4367 20.9616 15.2207C21.0688 16.0047 21.0199 16.8021 20.8176 17.5671C20.6153 18.3321 20.2638 19.0496 19.7831 19.6781C19.3025 20.3067 18.7022 20.834 18.017 21.2296C17.3317 21.6253 16.575 21.8815 15.7903 21.9835C15.0056 22.0855 14.2085 22.0312 13.4449 21.8239C12.6812 21.6166 11.9661 21.2603 11.3408 20.7755C10.7154 20.2907 10.1921 19.6869 9.80101 18.9991M20.193 12.9991C19.3917 11.6322 18.0823 10.6378 16.5505 10.2328C15.0187 9.82785 13.389 10.0452 12.0168 10.8374C10.6447 11.6296 9.64164 12.9324 9.22651 14.4615C8.81138 15.9905 9.0179 17.6217 9.80101 18.9991M20.193 12.9991L9.80101 18.9991M10.043 5.54206L15.128 2.53706C17 1.43106 19.394 2.08706 20.475 4.00406C20.8881 4.73754 21.0642 5.58086 20.9792 6.41837C20.8941 7.25587 20.5521 8.04658 20 8.68206M10.043 5.54206L4.95801 8.54706C3.08601 9.65306 2.44401 12.1031 3.52501 14.0191C3.82708 14.5625 4.2547 15.0258 4.77221 15.3704C5.28972 15.715 5.88212 15.9309 6.50001 16.0001M10.043 5.54206L11.5 8.00006" stroke="white" stroke-width="1.5" stroke-linecap="round" stroke-linejoin="round"/>
</g>
</svg>
