<svg width="24" height="24" viewBox="0 0 24 24" fill="none" xmlns="http://www.w3.org/2000/svg">
<g id="catppuccin:folder-docs">
<g id="Group">
<path id="Vector" d="M6.75 6.75H18C18.5967 6.75 19.169 6.98705 19.591 7.40901C20.0129 7.83097 20.25 8.40326 20.25 9V9.75M9 20.25H3C2.40326 20.25 1.83097 20.0129 1.40901 19.591C0.987053 19.169 0.75 18.5967 0.75 18V5.25C0.75 4.85218 0.908035 4.47064 1.18934 4.18934C1.47064 3.90804 1.85218 3.75 2.25 3.75H9.75C10.1478 3.75 10.5294 3.90804 10.8107 4.18934C11.092 4.47064 11.25 4.85218 11.25 5.25V6.75" stroke="white" stroke-linecap="round" stroke-linejoin="round"/>
<path id="Vector_2" d="M12.75 21.75V14.25C12.75 13.8522 12.908 13.4706 13.1893 13.1893C13.4706 12.908 13.8522 12.75 14.25 12.75H23.25V21.75M12.75 21.75C12.75 22.1478 12.908 22.5294 13.1893 22.8107C13.4706 23.092 13.8522 23.25 14.25 23.25H23.25V20.25H14.25C13.8522 20.25 13.4706 20.408 13.1893 20.6893C12.908 20.9706 12.75 21.3522 12.75 21.75Z" stroke="white" stroke-linecap="round" stroke-linejoin="round"/>
</g>
</g>
</svg>
