<svg width="28" height="29" viewBox="0 0 28 29" fill="none" xmlns="http://www.w3.org/2000/svg">
<g id="oui:app-monitoring">
<path id="Vector" d="M3.94012 13.9185C3.61022 14.1665 3.13753 14.1003 2.9296 13.7437C2.18491 12.4669 1.87099 10.9715 2.04841 9.48627C2.25568 7.75125 3.11749 6.16404 4.45417 5.05557C5.79086 3.94709 7.49925 3.4029 9.22317 3.53645C10.9471 3.67 12.5535 4.47099 13.7074 5.77241L13.9927 6.09106L14.2779 5.77241C15.396 4.503 16.945 3.70419 18.618 3.53407C20.2911 3.36396 21.9663 3.83496 23.3122 4.85383C24.6581 5.8727 25.5765 7.36518 25.8856 9.03585C26.1478 10.4529 25.9555 11.9105 25.3476 13.2002C25.1673 13.5825 24.6898 13.6897 24.3331 13.4628C23.9845 13.2411 23.8833 12.7826 24.0468 12.4031C24.4629 11.4375 24.5851 10.362 24.3881 9.3161C24.1449 8.02463 23.4325 6.87185 22.391 6.08442C21.3494 5.29698 20.0541 4.93187 18.7598 5.06086C17.4654 5.18985 16.2656 5.80361 15.3963 6.78147L13.9927 8.37474L12.589 6.78147C11.7002 5.74227 10.4448 5.09532 9.09066 4.97868C7.73652 4.86203 6.39089 5.28493 5.34093 6.15713C4.29096 7.02934 3.61979 8.28177 3.47065 9.64719C3.34905 10.7605 3.58232 11.8769 4.12597 12.8382C4.33012 13.1991 4.27159 13.6694 3.94012 13.9185ZM14.736 25.6739C14.3388 26.1154 13.6466 26.1154 13.2493 25.6739L8.68247 20.5985C8.40596 20.2912 8.42889 19.8185 8.73385 19.5394C9.04242 19.257 9.522 19.2802 9.80185 19.5911L13.9927 24.2467L18.1835 19.5911C18.4633 19.2802 18.9429 19.257 19.2515 19.5394C19.5564 19.8185 19.5794 20.2912 19.3029 20.5985L14.736 25.6739Z" fill="white"/>
<path id="Vector_2" d="M14.8871 18.6112C14.5744 19.3812 13.5134 19.4558 13.096 18.7372L11.045 15.2067L10.2429 16.7858C10.0724 17.1214 9.72783 17.3329 9.35134 17.3329H2.73825C2.33053 17.3329 2 17.0024 2 16.5946C2 16.1869 2.33053 15.8564 2.73825 15.8564H9.035L10.1217 13.717C10.4808 13.0101 11.4804 12.9823 11.8783 13.6681L13.88 17.1188L16.0827 11.7009C16.4162 10.8807 17.5725 10.8665 17.9259 11.6783L19.745 15.8564H25.2617C25.6695 15.8564 26 16.1869 26 16.5946C26 17.0024 25.6695 17.3329 25.2617 17.3329H19.4103C19.0123 17.3329 18.6523 17.0969 18.4934 16.7321L17.0225 13.3537L14.8871 18.6112Z" fill="white"/>
</g>
</svg>
