<svg width="36" height="36" viewBox="0 0 36 36" fill="none" xmlns="http://www.w3.org/2000/svg">
<g filter="url(#filter0_d_4678_1351)">
<path d="M25.9545 3.375H10.0455C8.27637 3.375 6.57971 4.07778 5.32874 5.32874C4.07778 6.57971 3.375 8.27637 3.375 10.0455V25.9545C3.375 27.7236 4.07778 29.4203 5.32874 30.6713C6.57971 31.9222 8.27637 32.625 10.0455 32.625H25.9545C27.7236 32.625 29.4203 31.9222 30.6713 30.6713C31.9222 29.4203 32.625 27.7236 32.625 25.9545V10.0455C32.625 8.27637 31.9222 6.57971 30.6713 5.32874C29.4203 4.07778 27.7236 3.375 25.9545 3.375ZM13.2645 26.988C13.2692 27.0696 13.2572 27.1514 13.2291 27.2282C13.2011 27.305 13.1576 27.3753 13.1014 27.4347C13.0453 27.4942 12.9775 27.5415 12.9024 27.5738C12.8272 27.6061 12.7463 27.6226 12.6645 27.6225H9.9945C9.83349 27.6186 9.68044 27.5516 9.56824 27.4361C9.45605 27.3205 9.39367 27.1656 9.3945 27.0045V15.9C9.39229 15.8198 9.40618 15.74 9.43535 15.6653C9.46451 15.5906 9.50836 15.5225 9.56429 15.465C9.62023 15.4076 9.68712 15.3619 9.76101 15.3307C9.83491 15.2995 9.9143 15.2835 9.9945 15.2835H12.6645C12.7447 15.2835 12.8241 15.2995 12.898 15.3307C12.9719 15.3619 13.0388 15.4076 13.0947 15.465C13.1506 15.5225 13.1945 15.5906 13.2237 15.6653C13.2528 15.74 13.2667 15.8198 13.2645 15.9V26.988ZM11.28 12.948C10.9909 12.9458 10.7051 12.8868 10.4389 12.7741C10.1726 12.6615 9.93119 12.4975 9.72831 12.2916C9.52544 12.0857 9.36512 11.8418 9.2565 11.5739C9.14787 11.306 9.09308 11.0193 9.09525 10.7303C9.09742 10.4412 9.1565 10.1554 9.26912 9.88912C9.38175 9.62289 9.54571 9.38144 9.75165 9.17856C9.95759 8.97569 10.2015 8.81537 10.4694 8.70675C10.7373 8.59812 11.0239 8.54333 11.313 8.5455C11.8868 8.56416 12.4305 8.80631 12.8283 9.22029C13.226 9.63426 13.4462 10.1873 13.4419 10.7613C13.4376 11.3354 13.2091 11.8851 12.8052 12.293C12.4013 12.701 11.854 12.9349 11.28 12.945M27.5055 26.97C27.5048 27.1216 27.4453 27.2669 27.3395 27.3755C27.2338 27.4841 27.09 27.5473 26.9385 27.552H24.12C23.9682 27.5473 23.8243 27.4838 23.7185 27.375C23.6126 27.2661 23.5533 27.1203 23.553 26.9685V21.8325C23.553 21.066 23.787 18.498 21.519 18.498C19.7505 18.498 19.401 20.298 19.3335 21.099V27.0855C19.3336 27.2376 19.2744 27.3837 19.1686 27.4929C19.0627 27.6021 18.9185 27.6658 18.7665 27.6705H16.032C15.8771 27.6701 15.7287 27.6083 15.6193 27.4986C15.5099 27.389 15.4485 27.2404 15.4485 27.0855V15.846C15.4532 15.694 15.5169 15.5498 15.6261 15.4439C15.7353 15.3381 15.8814 15.2789 16.0335 15.279H18.7665C18.9186 15.2789 19.0647 15.3381 19.1739 15.4439C19.2831 15.5498 19.3468 15.694 19.3515 15.846V16.8135C19.7505 16.2294 20.3015 15.7654 20.9449 15.4715C21.5883 15.1775 22.2997 15.0648 23.0025 15.1455C27.555 15.1455 27.5385 19.398 27.5385 21.816L27.5055 26.97Z" fill="#8AE6DE"/>
</g>
<defs>
<filter id="filter0_d_4678_1351" x="-0.625" y="-0.625" width="37.25" height="37.25" filterUnits="userSpaceOnUse" color-interpolation-filters="sRGB">
<feFlood flood-opacity="0" result="BackgroundImageFix"/>
<feColorMatrix in="SourceAlpha" type="matrix" values="0 0 0 0 0 0 0 0 0 0 0 0 0 0 0 0 0 0 127 0" result="hardAlpha"/>
<feOffset/>
<feGaussianBlur stdDeviation="2"/>
<feComposite in2="hardAlpha" operator="out"/>
<feColorMatrix type="matrix" values="0 0 0 0 0 0 0 0 0 0 0 0 0 0 0 0 0 0 0.25 0"/>
<feBlend mode="normal" in2="BackgroundImageFix" result="effect1_dropShadow_4678_1351"/>
<feBlend mode="normal" in="SourceGraphic" in2="effect1_dropShadow_4678_1351" result="shape"/>
</filter>
</defs>
</svg>
