<svg width="426" height="113" viewBox="0 0 426 113" fill="none" xmlns="http://www.w3.org/2000/svg">
<path d="M9.59657 82.1632C10.7958 82.2178 11.9389 82.3074 13.0351 82.3074C22.1327 82.3074 31.2303 82.284 40.3279 82.3386C42.4128 82.3354 44.4926 82.5091 46.5351 82.857C49.4115 83.3715 50.5311 84.6849 50.5733 87.0818C50.5951 88.4746 50.5951 89.8659 50.5733 91.2561C50.5405 93.5556 49.477 94.7833 46.7599 95.3874C45.3499 95.717 43.8956 95.8977 42.4313 95.9253C28.7287 95.9721 15.0308 95.9642 1.33284 95.9604C0.960993 95.9217 0.594105 95.8551 0.23663 95.7616V91.9304H41.0587V86.6882C40.0703 86.6453 38.974 86.5557 37.8778 86.5557C28.6725 86.5557 19.4718 86.5557 10.2712 86.5245C8.28801 86.5065 6.31086 86.3396 4.36381 86.0256C1.55302 85.5891 0.260051 84.2718 0.0586108 81.8943C-0.0350824 80.7679 -0.00228975 79.6337 0.0586108 78.5035C0.156989 75.7051 1.46401 74.3526 4.74327 73.8265C6.38716 73.5739 8.05608 73.4512 9.72774 73.4601C22.3794 73.4368 35.028 73.4368 47.6735 73.4601C48.4933 73.4601 49.3131 73.5575 50.3343 73.6238V77.1315C47.0317 77.2641 43.6212 77.1744 40.2202 77.19C36.8191 77.2056 33.5258 77.19 30.181 77.19H9.59657V82.1632Z" fill="url(#paint0_linear_1599_706)"/>
<path d="M99.8184 73.6319H110.72V95.8008H99.8934V86.4703H65.5876V95.8242H54.8691V73.6085H65.5267V81.6374C68.1923 82.2532 96.2956 82.3389 99.8184 81.7582V73.6319Z" fill="url(#paint1_linear_1599_706)"/>
<path d="M222.242 77.3885V73.643C223.268 73.565 224.173 73.4442 225.077 73.4403C235.121 73.4208 245.16 73.3585 255.204 73.4403C261.186 73.4871 267.089 74.0834 272.537 76.3517C278.074 78.6551 280.407 82.8567 278.627 87.3232C277.732 89.5642 275.858 91.17 273.516 92.4289C270.32 94.1049 266.691 95.1243 262.929 95.4027C259.607 95.7028 256.267 95.9288 252.932 95.9522C243.515 96.0302 234.099 95.9873 224.688 95.9834C223.971 95.9834 223.254 95.9288 222.317 95.8899V91.8949H225.32C232.853 91.8949 240.386 92.0157 247.914 91.8443C252.07 91.7507 256.22 91.244 260.347 90.7646C261.795 90.5427 263.182 90.1043 264.442 89.4707C269.155 87.2725 269.403 81.4808 263.88 79.1735C260.521 77.7704 256.914 77.3924 253.227 77.3885C244.129 77.3885 235.027 77.3885 225.925 77.3885H222.242Z" fill="url(#paint2_linear_1599_706)"/>
<path d="M119.686 56.1239C122.028 59.5108 122.787 62.6327 123.434 65.7819C124.884 72.8759 125.482 80.0723 125.219 87.2648C124.966 94.2803 124.497 101.296 122.248 108.124C121.738 109.683 120.937 111.156 120.126 113C118.374 111.659 117.878 110.217 117.536 108.849C116.575 105.037 115.432 101.214 115.076 97.3477C114.482 91.3851 114.269 85.4005 114.439 79.4192C114.678 72.5908 115.414 65.7546 118.06 59.1951C118.43 58.326 118.964 57.5114 119.686 56.1239Z" fill="url(#paint3_linear_1599_706)"/>
<path d="M193.268 91.8989H217.595V95.8509H183.116C182.4 94.0815 182.179 77.825 182.835 73.6664H193.268V91.8989Z" fill="url(#paint4_linear_1599_706)"/>
<path d="M178.516 92.3398V95.8242H129.43C129.341 95.2474 129.191 94.6783 129.168 94.1054C129.144 93.5325 129.238 92.9011 129.28 92.3165C131.979 91.6968 176.183 91.7357 178.516 92.3398Z" fill="url(#paint5_linear_1599_706)"/>
<path d="M178.492 82.7014V85.6947C176.37 86.3339 133.787 86.5365 129.388 85.8973C129.318 85.3711 129.191 84.7943 129.172 84.2136C129.187 83.7195 129.234 83.2263 129.313 82.7364C131.955 82.1167 175.541 82.0661 178.492 82.7014Z" fill="url(#paint6_linear_1599_706)"/>
<path d="M178.146 73.729C178.207 74.4539 178.291 75.0502 178.291 75.6466C178.256 76.104 178.191 76.5594 178.094 77.0107H129.374C129.273 76.5651 129.206 76.1147 129.172 75.6621C129.172 75.0658 129.252 74.4656 129.299 73.8966C131.637 73.3431 173.723 73.1833 178.146 73.729Z" fill="url(#paint7_linear_1599_706)"/>
<path d="M381.743 13.8438C384.695 13.6528 387.412 13.532 390.138 14.6701C398.125 18.0063 406.202 21.2023 414.25 24.4489C415.365 24.8971 416.494 25.3297 417.951 25.8988C418.34 21.7518 417.867 17.8309 418.237 13.8165H425.531C426.083 15.3989 426.182 29.4494 425.643 31.7645C422.781 31.8697 419.993 32.0724 417.183 30.8603C410.652 28.0463 403.991 25.4505 397.376 22.7769C394.846 21.7518 392.298 20.758 389.482 19.6589V31.7411C386.854 31.9788 384.39 31.819 381.743 31.858V13.8438Z" fill="url(#paint8_linear_1599_706)"/>
<path d="M175.183 31.8734C171.669 31.8734 168.156 32.0605 164.652 31.7955C162.928 31.6669 161.227 30.8094 159.625 30.1079C156.299 28.6619 153.066 27.0873 149.754 25.5946C149.255 25.3411 148.692 25.1864 148.11 25.1425C145.608 25.0957 143.102 25.123 140.315 25.123V31.7487H131.789V21.8686H134.576C142.615 21.8686 150.655 21.8686 158.697 21.8686C159.452 21.8686 160.206 21.8686 160.96 21.8686C163.654 21.775 164.146 21.319 164.014 19.0702C163.925 17.5774 163.668 17.2812 161.855 17.0123C160.863 16.8835 159.86 16.8287 158.857 16.8486C150.818 16.8486 142.777 16.8486 134.735 16.8486H131.84V13.9099C132.534 13.8553 133.246 13.7462 133.962 13.7423C144.1 13.7423 154.233 13.7033 164.366 13.7657C166.28 13.8101 168.183 14.0311 170.039 14.4244C171.674 14.7479 172.48 15.7651 172.414 17.2306C172.358 18.5518 172.414 19.877 172.414 21.2021C172.414 23.2093 171.618 24.1798 169.242 24.6046C167.35 24.8795 165.437 25.0526 163.518 25.123C162.568 25.1289 161.62 25.1993 160.684 25.3335C165.415 27.672 170.521 29.3985 175.384 31.4798L175.183 31.8734Z" fill="url(#paint9_linear_1599_706)"/>
<path d="M225.318 13.8398C226.695 13.7813 227.567 13.7268 228.443 13.7151C229.782 13.7151 231.122 13.7151 232.462 13.7151C237.4 13.7151 237.376 13.7384 241.288 16.264C247.228 20.0914 253.196 23.8836 259.155 27.6915C259.417 27.8552 259.699 28.0033 260.12 28.2449C263.471 26.0753 266.818 23.9083 270.159 21.7439C273.851 19.3625 277.547 16.9773 281.276 14.631C281.909 14.2412 282.714 13.7813 283.454 13.7657C287.46 13.6839 291.465 13.7268 296.028 13.7268C295.49 14.2062 294.919 14.6591 294.318 15.0831C285.675 20.3213 276.985 25.5362 268.384 30.79C267.205 31.5648 265.73 31.9605 264.229 31.9047C261.469 31.815 258.701 31.928 255.941 31.8501C255.045 31.8386 254.17 31.6185 253.416 31.2148C244.441 25.7583 235.512 20.2784 226.573 14.7947C226.269 14.6037 226.011 14.3659 225.318 13.8398Z" fill="url(#paint10_linear_1599_706)"/>
<path d="M0.121802 13.7424C3.69619 13.7424 7.27059 13.6645 10.8356 13.797C11.7163 13.832 12.6298 14.4712 13.4122 14.9662C19.7177 18.965 25.9952 22.995 32.2866 27.0095C32.9378 27.4226 33.6218 27.789 34.3713 28.245C39.2481 25.088 44.0451 21.9778 48.8469 18.891C51.0909 17.4411 53.3161 15.9757 55.6069 14.5804C56.2379 14.1425 57.0072 13.8651 57.8227 13.7814C61.6688 13.7151 65.5243 13.7814 69.3751 13.7814C69.4969 13.7814 69.614 13.9295 69.9653 14.1711C68.6911 14.9779 67.4825 15.7769 66.2176 16.5291C58.4505 21.2334 50.6552 25.8831 42.9161 30.638C41.4311 31.5462 39.9461 32.0723 38.0816 31.9164C36.9141 31.8073 35.7356 31.8073 34.5681 31.9164C30.6283 32.3334 27.3865 31.363 24.215 29.3129C16.5228 24.3046 8.56824 19.5886 0.716754 14.7285C0.466845 14.561 0.227602 14.3827 0 14.1945L0.121802 13.7424Z" fill="url(#paint11_linear_1599_706)"/>
<path d="M311.773 31.4761C313.371 30.416 314.959 29.3403 316.57 28.2958C323.55 23.7708 330.559 19.2653 337.511 14.7091C338.459 14.0313 339.676 13.6702 340.926 13.6958C343.605 13.7503 346.29 13.6607 348.969 13.7464C349.865 13.764 350.736 13.9968 351.476 14.4168C359.852 19.7148 368.198 25.0414 376.515 30.3965C377.082 30.759 377.597 31.176 378.572 31.8659C374.103 31.8659 370.196 31.9243 366.298 31.8152C365.502 31.7957 364.649 31.2267 363.956 30.7629C357.753 26.551 351.566 22.3196 345.395 18.0688C345.142 17.8934 344.88 17.7219 344.388 17.3906C342.345 18.7508 340.284 20.1188 338.237 21.4908C333.552 24.636 328.868 27.7657 324.244 30.95C323.373 31.5974 322.234 31.9371 321.068 31.8971C318.013 31.8308 314.954 31.8737 311.895 31.8737L311.773 31.4761Z" fill="url(#paint12_linear_1599_706)"/>
<path d="M213.194 28.3073V13.8243C216.067 13.6807 218.947 13.6598 221.823 13.7619C221.893 14.4556 222.001 15.0481 222.001 15.6405C222.02 19.6107 222.02 23.5823 222.001 27.5551C222.001 30.1392 221.134 31.0317 218.043 31.5422C216.729 31.7525 215.394 31.8582 214.056 31.8579C205.155 31.8852 196.287 31.8969 187.405 31.8579C185.734 31.8385 184.069 31.6739 182.439 31.3669C180.725 31.0551 179.535 30.0144 179.502 28.5724C179.39 23.7161 179.46 18.8559 179.46 13.8593H188.187V28.3151L213.194 28.3073Z" fill="url(#paint13_linear_1599_706)"/>
<path d="M303.697 45.4487C302.024 43.4493 301.532 41.2472 301.05 39.088C300.391 36.43 299.944 33.7388 299.71 31.0319C299.171 22.8238 299.031 14.6118 301.031 6.47769C301.565 4.31458 302.113 2.14758 303.645 0.0624208C305.126 1.53957 305.58 3.14923 306.025 4.73941C307.838 11.1508 308.213 17.6752 308.143 24.2269C308.086 29.8821 307.571 35.4945 305.964 41.0056C305.51 42.5373 305.116 44.0963 303.697 45.4487Z" fill="url(#paint14_linear_1599_706)"/>
<path d="M77.8074 0C79.3346 1.58238 79.8265 3.18815 80.2762 4.79002C82.3656 12.2381 82.5811 19.811 82.2953 27.3955C82.1951 31.9211 81.5056 36.4243 80.2388 40.8262C79.7703 42.354 79.0442 43.8273 78.4305 45.3239L77.8027 45.3668C77.2721 44.4964 76.8029 43.6011 76.3973 42.6853C74.92 38.6164 74.0777 34.4064 73.8911 30.1588C73.5257 24.0436 73.3195 17.909 74.3174 11.8172C74.7858 8.8629 75.5775 5.93978 76.3458 3.02445C76.5894 2.05008 77.2312 1.15366 77.8074 0Z" fill="url(#paint15_linear_1599_706)"/>
<path d="M128.851 13.8555V16.9111C123.155 17.0437 117.505 16.8878 111.57 17.0086V31.7567H102.758V17.0203H85.5793V13.8555H128.851Z" fill="url(#paint16_linear_1599_706)"/>
<defs>
<linearGradient id="paint0_linear_1599_706" x1="524.447" y1="-37.5621" x2="46.8048" y2="199.384" gradientUnits="userSpaceOnUse">
<stop stop-color="white"/>
<stop offset="0.24" stop-color="#939393"/>
<stop offset="0.37" stop-color="#5E5C67"/>
<stop offset="0.61" stop-color="#C0BFC0"/>
<stop offset="0.78" stop-color="#888383"/>
<stop offset="1" stop-color="#848282"/>
</linearGradient>
<linearGradient id="paint1_linear_1599_706" x1="524.447" y1="-37.5621" x2="46.8048" y2="199.384" gradientUnits="userSpaceOnUse">
<stop stop-color="white"/>
<stop offset="0.24" stop-color="#939393"/>
<stop offset="0.37" stop-color="#5E5C67"/>
<stop offset="0.61" stop-color="#C0BFC0"/>
<stop offset="0.78" stop-color="#888383"/>
<stop offset="1" stop-color="#848282"/>
</linearGradient>
<linearGradient id="paint2_linear_1599_706" x1="524.447" y1="-37.5621" x2="46.8048" y2="199.384" gradientUnits="userSpaceOnUse">
<stop stop-color="white"/>
<stop offset="0.24" stop-color="#939393"/>
<stop offset="0.37" stop-color="#5E5C67"/>
<stop offset="0.61" stop-color="#C0BFC0"/>
<stop offset="0.78" stop-color="#888383"/>
<stop offset="1" stop-color="#848282"/>
</linearGradient>
<linearGradient id="paint3_linear_1599_706" x1="524.447" y1="-37.5621" x2="46.8048" y2="199.384" gradientUnits="userSpaceOnUse">
<stop stop-color="white"/>
<stop offset="0.24" stop-color="#939393"/>
<stop offset="0.37" stop-color="#5E5C67"/>
<stop offset="0.61" stop-color="#C0BFC0"/>
<stop offset="0.78" stop-color="#888383"/>
<stop offset="1" stop-color="#848282"/>
</linearGradient>
<linearGradient id="paint4_linear_1599_706" x1="524.447" y1="-37.5621" x2="46.8048" y2="199.384" gradientUnits="userSpaceOnUse">
<stop stop-color="white"/>
<stop offset="0.24" stop-color="#939393"/>
<stop offset="0.37" stop-color="#5E5C67"/>
<stop offset="0.61" stop-color="#C0BFC0"/>
<stop offset="0.78" stop-color="#888383"/>
<stop offset="1" stop-color="#848282"/>
</linearGradient>
<linearGradient id="paint5_linear_1599_706" x1="524.447" y1="-37.5621" x2="46.8048" y2="199.384" gradientUnits="userSpaceOnUse">
<stop stop-color="white"/>
<stop offset="0.24" stop-color="#939393"/>
<stop offset="0.37" stop-color="#5E5C67"/>
<stop offset="0.61" stop-color="#C0BFC0"/>
<stop offset="0.78" stop-color="#888383"/>
<stop offset="1" stop-color="#848282"/>
</linearGradient>
<linearGradient id="paint6_linear_1599_706" x1="524.447" y1="-37.5621" x2="46.8048" y2="199.384" gradientUnits="userSpaceOnUse">
<stop stop-color="white"/>
<stop offset="0.24" stop-color="#939393"/>
<stop offset="0.37" stop-color="#5E5C67"/>
<stop offset="0.61" stop-color="#C0BFC0"/>
<stop offset="0.78" stop-color="#888383"/>
<stop offset="1" stop-color="#848282"/>
</linearGradient>
<linearGradient id="paint7_linear_1599_706" x1="524.447" y1="-37.5621" x2="46.8048" y2="199.384" gradientUnits="userSpaceOnUse">
<stop stop-color="white"/>
<stop offset="0.24" stop-color="#939393"/>
<stop offset="0.37" stop-color="#5E5C67"/>
<stop offset="0.61" stop-color="#C0BFC0"/>
<stop offset="0.78" stop-color="#888383"/>
<stop offset="1" stop-color="#848282"/>
</linearGradient>
<linearGradient id="paint8_linear_1599_706" x1="524.447" y1="-37.5621" x2="46.8048" y2="199.384" gradientUnits="userSpaceOnUse">
<stop stop-color="white"/>
<stop offset="0.24" stop-color="#939393"/>
<stop offset="0.37" stop-color="#5E5C67"/>
<stop offset="0.61" stop-color="#C0BFC0"/>
<stop offset="0.78" stop-color="#888383"/>
<stop offset="1" stop-color="#848282"/>
</linearGradient>
<linearGradient id="paint9_linear_1599_706" x1="524.447" y1="-37.5621" x2="46.8048" y2="199.384" gradientUnits="userSpaceOnUse">
<stop stop-color="white"/>
<stop offset="0.24" stop-color="#939393"/>
<stop offset="0.37" stop-color="#5E5C67"/>
<stop offset="0.61" stop-color="#C0BFC0"/>
<stop offset="0.78" stop-color="#888383"/>
<stop offset="1" stop-color="#848282"/>
</linearGradient>
<linearGradient id="paint10_linear_1599_706" x1="524.447" y1="-37.5621" x2="46.8048" y2="199.384" gradientUnits="userSpaceOnUse">
<stop stop-color="white"/>
<stop offset="0.24" stop-color="#939393"/>
<stop offset="0.37" stop-color="#5E5C67"/>
<stop offset="0.61" stop-color="#C0BFC0"/>
<stop offset="0.78" stop-color="#888383"/>
<stop offset="1" stop-color="#848282"/>
</linearGradient>
<linearGradient id="paint11_linear_1599_706" x1="524.447" y1="-37.5621" x2="46.8048" y2="199.384" gradientUnits="userSpaceOnUse">
<stop stop-color="white"/>
<stop offset="0.24" stop-color="#939393"/>
<stop offset="0.37" stop-color="#5E5C67"/>
<stop offset="0.61" stop-color="#C0BFC0"/>
<stop offset="0.78" stop-color="#888383"/>
<stop offset="1" stop-color="#848282"/>
</linearGradient>
<linearGradient id="paint12_linear_1599_706" x1="524.447" y1="-37.5621" x2="46.8048" y2="199.384" gradientUnits="userSpaceOnUse">
<stop stop-color="white"/>
<stop offset="0.24" stop-color="#939393"/>
<stop offset="0.37" stop-color="#5E5C67"/>
<stop offset="0.61" stop-color="#C0BFC0"/>
<stop offset="0.78" stop-color="#888383"/>
<stop offset="1" stop-color="#848282"/>
</linearGradient>
<linearGradient id="paint13_linear_1599_706" x1="524.447" y1="-37.5621" x2="46.8048" y2="199.384" gradientUnits="userSpaceOnUse">
<stop stop-color="white"/>
<stop offset="0.24" stop-color="#939393"/>
<stop offset="0.37" stop-color="#5E5C67"/>
<stop offset="0.61" stop-color="#C0BFC0"/>
<stop offset="0.78" stop-color="#888383"/>
<stop offset="1" stop-color="#848282"/>
</linearGradient>
<linearGradient id="paint14_linear_1599_706" x1="524.447" y1="-37.5621" x2="46.8048" y2="199.384" gradientUnits="userSpaceOnUse">
<stop stop-color="white"/>
<stop offset="0.24" stop-color="#939393"/>
<stop offset="0.37" stop-color="#5E5C67"/>
<stop offset="0.61" stop-color="#C0BFC0"/>
<stop offset="0.78" stop-color="#888383"/>
<stop offset="1" stop-color="#848282"/>
</linearGradient>
<linearGradient id="paint15_linear_1599_706" x1="524.447" y1="-37.5621" x2="46.8048" y2="199.384" gradientUnits="userSpaceOnUse">
<stop stop-color="white"/>
<stop offset="0.24" stop-color="#939393"/>
<stop offset="0.37" stop-color="#5E5C67"/>
<stop offset="0.61" stop-color="#C0BFC0"/>
<stop offset="0.78" stop-color="#888383"/>
<stop offset="1" stop-color="#848282"/>
</linearGradient>
<linearGradient id="paint16_linear_1599_706" x1="524.447" y1="-37.5621" x2="46.8048" y2="199.384" gradientUnits="userSpaceOnUse">
<stop stop-color="white"/>
<stop offset="0.24" stop-color="#939393"/>
<stop offset="0.37" stop-color="#5E5C67"/>
<stop offset="0.61" stop-color="#C0BFC0"/>
<stop offset="0.78" stop-color="#888383"/>
<stop offset="1" stop-color="#848282"/>
</linearGradient>
</defs>
</svg>
