<svg width="35" height="34" viewBox="0 0 35 34" fill="none" xmlns="http://www.w3.org/2000/svg">
<path d="M14.0675 19.2575C14.2225 19.0975 14.3825 18.9425 14.55 18.8C15.0425 18.3875 16.3225 17.43 17.0125 17.8275C17.4225 18.065 17.3625 18.8525 17.2125 19.18C16.84 19.99 15.885 20.6725 15.3025 21.3475C14.8425 21.8825 14.2925 22.36 13.79 22.86C12.99 23.6625 12.2225 24.5625 11.355 25.295C11.3525 25.295 6.0275 29.7925 4.715 30.9025C4.55 31.0425 4.3075 31.03 4.155 30.88C4.0025 30.7275 3.9925 30.485 4.13 30.32L9.7375 23.675C10.835 22.5775 11.935 21.4775 13.0325 20.3775C13.385 20.025 13.7175 19.6225 14.0675 19.2575Z" fill="#82AEC0"/>
<path d="M17.22 19.1525C17.0425 18.93 16.85 18.71 16.64 18.4975C16.42 18.2775 16.19 18.075 15.9575 17.8925C15.4025 18.125 14.84 18.555 14.55 18.8C14.3825 18.94 14.2225 19.095 14.0675 19.2575C13.7175 19.625 13.3875 20.025 13.0325 20.3775C12.7 20.71 12.365 21.045 12.0325 21.38C12.0325 21.38 11.9725 21.895 12.56 22.4825C13.1475 23.07 13.635 23.0175 13.635 23.0175C13.6875 22.965 13.7375 22.9125 13.79 22.86C14.29 22.36 14.8425 21.8825 15.3025 21.3475C15.885 20.6725 16.8375 19.99 17.2125 19.18C17.215 19.1725 17.2175 19.16 17.22 19.1525Z" fill="#2F7889"/>
<path d="M13.2025 20.3975C12.005 19.1075 10.94 17.71 10.075 16.2625C9.71 15.6525 9.235 14.44 9.09 13.2725C8.9225 11.9425 9.905 10.7325 11.24 10.6125C12.875 10.465 15.4075 10.52 17.245 11.8775L23.1575 5.96497L29.07 11.875L23.1575 17.785C24.515 19.62 24.57 22.15 24.425 23.785C24.3025 25.1375 23.065 26.115 21.72 25.93C20.5 25.76 19.2275 25.2375 18.6 24.8525C16.665 23.6675 14.8125 22.13 13.2025 20.3975Z" fill="#F44336"/>
<path d="M16.1925 12.715L23.1575 5.96252C23.1575 5.96252 24.5975 7.86752 25.6925 8.98502C26.7875 10.1 29.0725 11.875 29.0725 11.875L22.33 18.615C22.33 18.615 19.845 18.845 17.995 16.995C15.84 14.8375 16.1925 12.715 16.1925 12.715Z" fill="#F44336"/>
<path d="M19.49 14.0375C19.79 16.2675 20.6125 17.5175 21.045 17.895C21.7425 18.4975 22.7325 18.21 23.1575 17.7875L29.07 11.875C29.07 11.875 26.785 10.1025 25.69 8.98502C24.595 7.86752 23.1575 5.96252 23.1575 5.96252L20.4975 8.52252C20.03 8.97252 19.715 9.56002 19.615 10.2C19.485 11.0475 19.2375 12.17 19.49 14.0375Z" fill="#C62828"/>
<path d="M22.7175 1.38L20.095 4.0025C19.605 4.385 19.59 4.87 19.59 4.87C19.32 6.375 20.79 9.1525 23.315 11.68C25.8425 14.2075 28.62 15.675 30.125 15.405C30.125 15.405 30.525 15.4375 30.91 14.9825L33.615 12.2775L22.7175 1.38Z" fill="#F44336"/>
<path d="M33.615 12.2775C32.545 13.4925 29.1025 11.9125 26.0925 8.90245C23.0825 5.89245 21.5725 2.52495 22.7175 1.37995C23.8625 0.234955 27.2 1.77745 30.24 4.75495C33.18 7.63245 34.71 11.035 33.615 12.2775Z" fill="#F44336"/>
<path d="M16.335 12.8301C16.315 11.8676 14.395 10.7151 13.2075 11.6976C12.205 12.5276 12.61 14.2951 13.1225 15.2226C13.69 16.2501 14.495 17.2026 15.55 17.7176C16.6075 18.2351 18.1975 17.9501 17.6375 16.9176C16.895 15.5476 16.38 14.8976 16.335 12.8301ZM26.11 8.34006C30.89 13.0376 32.6375 12.1376 32.9825 11.8701C33.2275 11.6826 33.3425 11.3526 33.3725 11.0351C33.4525 10.2001 32.9 8.71006 32.49 7.99256C31.4225 6.12506 30.4 5.01256 27.39 2.74756C26.06 1.74506 24.1 1.16256 23.4375 1.74506C22.6575 2.43006 22.575 4.86506 26.11 8.34006Z" fill="#FF7555"/>
<mask id="path-9-inside-1_4111_7239" fill="white">
<path d="M5.26053 33.6852C4.64643 33.8574 3.99693 33.8586 3.3822 33.6886C2.76747 33.5186 2.21089 33.1838 1.77259 32.7204C1.33429 32.2571 1.03093 31.6828 0.895287 31.0596C0.759646 30.4364 0.79688 29.7879 1.00297 29.1843L1.58025 29.3814C1.41009 29.8798 1.37934 30.4152 1.49134 30.9298C1.60334 31.4444 1.85383 31.9186 2.21574 32.3012C2.57765 32.6838 3.03723 32.9603 3.54481 33.1006C4.0524 33.241 4.5887 33.2401 5.09578 33.0978L5.26053 33.6852Z"/>
</mask>
<path d="M5.26053 33.6852C4.64643 33.8574 3.99693 33.8586 3.3822 33.6886C2.76747 33.5186 2.21089 33.1838 1.77259 32.7204C1.33429 32.2571 1.03093 31.6828 0.895287 31.0596C0.759646 30.4364 0.79688 29.7879 1.00297 29.1843L1.58025 29.3814C1.41009 29.8798 1.37934 30.4152 1.49134 30.9298C1.60334 31.4444 1.85383 31.9186 2.21574 32.3012C2.57765 32.6838 3.03723 32.9603 3.54481 33.1006C4.0524 33.241 4.5887 33.2401 5.09578 33.0978L5.26053 33.6852Z" stroke="#5C5C5C" stroke-width="2" mask="url(#path-9-inside-1_4111_7239)"/>
</svg>
