<svg width="183" height="50" viewBox="0 0 183 50" fill="none" xmlns="http://www.w3.org/2000/svg">
<path d="M6.28201 22.8911C7.06438 22.9391 7.79766 23.0179 8.53401 23.0179C14.4923 23.0179 20.4506 22.9973 26.4089 23.0453C27.7733 23.0423 29.1344 23.195 30.4711 23.501C32.358 23.9533 33.0912 25.1079 33.1188 27.2151C33.1332 28.4394 33.1332 29.6626 33.1188 30.8846C33.0974 32.9062 32.3978 33.9855 30.6214 34.5166C29.6979 34.8063 28.7455 34.9651 27.7865 34.9894C18.8122 35.0305 9.84103 35.0236 0.869849 35.0202C0.626263 34.9865 0.385945 34.9281 0.151908 34.8455V31.4774H26.8906V26.869C26.2432 26.8313 25.5253 26.7526 24.8073 26.7526C18.7785 26.7526 12.7527 26.7525 6.72382 26.7251C5.42602 26.7091 4.13216 26.5624 2.85799 26.2866C1.01712 25.9028 0.170315 24.7448 0.0383859 22.6547C-0.0229765 21.6645 -0.00149963 20.6674 0.0383859 19.6738C0.102816 17.2137 0.958821 16.0248 3.1065 15.5623C4.18314 15.3402 5.27616 15.2324 6.37098 15.2402C14.659 15.2196 22.9429 15.2196 31.2227 15.2402C31.7597 15.2402 32.2966 15.3258 32.9654 15.3841V18.4677C30.8024 18.5842 28.5688 18.5054 26.3414 18.5191C24.1139 18.5329 21.957 18.5191 19.7664 18.5191H6.28201V22.8911Z" fill="white"/>
<path d="M65.3771 15.391H72.5166V34.8797H65.4261V26.6772H42.9583V34.9003H35.9384V15.3704H42.9184V22.4286C44.6642 22.9699 63.0698 23.0453 65.3771 22.5348V15.391Z" fill="white"/>
<path d="M145.556 18.6939V15.4012C146.228 15.3327 146.82 15.2265 147.412 15.2231C153.987 15.2059 160.565 15.1511 167.144 15.2231C171.062 15.2642 174.927 15.7884 178.496 17.7825C182.119 19.8074 183.65 23.501 182.484 27.4275C181.898 29.3977 180.671 30.8093 179.137 31.916C177.044 33.3889 174.667 34.285 172.203 34.5303C170.028 34.7941 167.84 34.9928 165.656 35.0134C159.489 35.0819 153.322 35.0442 147.158 35.0408C146.688 35.0408 146.219 34.9928 145.605 34.9585V31.4466H147.572C152.506 31.4466 157.439 31.5528 162.37 31.402C165.091 31.3198 167.809 30.8744 170.512 30.453C171.454 30.2576 172.356 29.8746 173.175 29.3223C176.262 27.3899 176.425 22.2984 172.807 20.27C170.607 19.0365 168.245 18.7042 165.83 18.7008C159.872 18.7008 153.911 18.7008 147.949 18.7008L145.556 18.6939Z" fill="white"/>
<path d="M78.3982 0C79.9322 2.97745 80.4293 5.72193 80.8527 8.49038C81.8023 14.7267 82.1939 21.0532 82.0216 27.3761C81.8529 33.5435 81.5491 39.7108 80.0764 45.7137C79.7389 47.0842 79.2173 48.3794 78.6866 50C77.5391 48.8214 77.2139 47.5536 76.9899 46.351C76.3609 43.0001 75.6123 39.6389 75.3761 36.24C74.9894 30.9981 74.8512 25.7371 74.9619 20.479C75.1183 14.4761 75.6 8.46639 77.3335 2.69993C77.5667 1.93586 77.9165 1.21976 78.3982 0Z" fill="white"/>
<path d="M126.58 31.45H142.516V34.9243H119.931C119.462 33.3687 119.318 19.0776 119.747 15.4218H126.58V31.45Z" fill="white"/>
<path d="M116.915 31.8372V34.9003H84.7706C84.7093 34.3932 84.6142 33.893 84.5988 33.3893C84.5835 32.8856 84.6449 32.3306 84.6725 31.8166C86.4366 31.2719 115.39 31.3061 116.915 31.8372Z" fill="white"/>
<path d="M116.903 23.3639V25.9954C115.51 26.5573 87.624 26.7354 84.743 26.1735C84.697 25.7109 84.6142 25.2039 84.6019 24.6934C84.6115 24.259 84.6422 23.8255 84.6939 23.3948C86.4121 22.85 114.97 22.8055 116.903 23.3639Z" fill="white"/>
<path d="M116.676 15.4766C116.716 16.1139 116.771 16.6381 116.771 17.1624C116.748 17.5645 116.705 17.9649 116.642 18.3616H84.7338C84.6678 17.9698 84.6238 17.5739 84.6019 17.176C84.6019 16.6518 84.6541 16.1242 84.6847 15.624C86.2157 15.1374 113.78 14.9969 116.676 15.4766Z" fill="white"/>
</svg>
