<svg width="279" height="50" viewBox="0 0 279 50" fill="none" xmlns="http://www.w3.org/2000/svg">
<path d="M250.015 15.2303C251.948 15.0202 253.727 14.8872 255.513 16.1393C260.729 19.8096 266.034 23.3256 271.305 26.8974C272.035 27.3904 272.774 27.8664 273.728 28.4924C273.983 23.9302 273.673 19.6167 273.916 15.2002H278.693C279.055 16.9411 279.119 32.3986 278.766 34.9455C276.889 35.0613 275.066 35.2843 273.225 33.9508C268.948 30.855 264.585 27.9993 260.253 25.0579C258.593 23.9302 256.924 22.8368 255.083 21.6276V34.9198C253.362 35.1814 251.748 35.0056 250.015 35.0485V15.2303Z" fill="white"/>
<path d="M114.732 35.0656C112.431 35.0656 110.13 35.2714 107.835 34.9798C106.703 34.8383 105.592 33.895 104.543 33.1232C102.365 31.5325 100.248 29.8002 98.0786 28.158C97.7516 27.8791 97.3832 27.7089 97.0017 27.6606C95.3633 27.6091 93.7218 27.6391 91.8963 27.6391V34.9284H86.3062V24.0588H88.1471C93.412 24.0588 98.6779 24.0588 103.945 24.0588C104.439 24.0588 104.933 24.0588 105.427 24.0588C107.191 23.9559 107.513 23.4542 107.427 20.9802C107.369 19.338 107.2 19.0121 106.013 18.7162C105.363 18.5745 104.706 18.5142 104.049 18.5361C98.7842 18.5361 93.5183 18.5361 88.2514 18.5361H86.3553V15.3031C86.8094 15.2431 87.2757 15.1231 87.7451 15.1188C94.3846 15.1188 101.021 15.0759 107.657 15.1445C108.911 15.1934 110.157 15.4364 111.373 15.8691C112.444 16.225 112.971 17.3441 112.928 18.9563C112.891 20.4099 112.928 21.8678 112.928 23.3256C112.928 25.5338 112.407 26.6015 110.851 27.0689C109.611 27.3712 108.359 27.5617 107.102 27.6391C106.48 27.6457 105.859 27.7231 105.246 27.8707C108.345 30.4434 111.689 32.3428 114.873 34.6325L114.732 35.0656Z" fill="white"/>
<path d="M147.567 15.226C148.469 15.1616 149.04 15.1016 149.614 15.0888C150.491 15.0888 151.369 15.0888 152.246 15.0888C155.48 15.0888 155.465 15.1145 158.027 17.893C161.917 22.1036 165.826 26.2756 169.728 30.4648C169.9 30.6449 170.084 30.8078 170.36 31.0737C172.553 28.6868 174.745 26.3028 176.935 23.9216C179.353 21.3018 181.774 18.6776 184.216 16.0964C184.63 15.6676 185.158 15.1616 185.643 15.1445C188.266 15.0545 190.889 15.1016 193.878 15.1016C193.525 15.628 193.151 16.1262 192.758 16.5938C187.097 22.3566 181.406 28.0936 175.773 33.8736C175 34.726 174.034 35.1613 173.051 35.0999C171.244 35.0013 169.431 35.1256 167.621 35.0399C167.035 35.0264 166.463 34.7844 165.97 34.341C160.091 28.338 154.244 22.3094 148.39 16.2765C148.19 16.0664 148.021 15.8048 147.567 15.226Z" fill="white"/>
<path d="M0.0920434 15.1188C2.43302 15.1188 4.77399 15.033 7.10883 15.1788C7.68564 15.2174 8.28392 15.9206 8.7963 16.4651C12.926 20.8644 17.0373 25.298 21.1578 29.7144C21.5842 30.1689 22.0322 30.572 22.5231 31.0737C25.717 27.6005 28.8587 24.1789 32.0036 20.783C33.4732 19.1879 34.9305 17.5757 36.4309 16.0406C36.8441 15.5589 37.348 15.2537 37.8821 15.1617C40.401 15.0888 42.9261 15.1617 45.4481 15.1617C45.5278 15.1617 45.6045 15.3246 45.8346 15.5904C45.0001 16.478 44.2085 17.357 43.3801 18.1845C38.2932 23.3599 33.1879 28.4753 28.1193 33.7064C27.1467 34.7054 26.1741 35.2843 24.953 35.1128C24.1884 34.9927 23.4166 34.9927 22.6519 35.1128C20.0716 35.5716 17.9485 34.5039 15.8714 32.2485C10.8305 26.7387 5.61466 21.5505 0.469422 16.2036C0.30575 16.0193 0.149063 15.8232 0 15.6162L0.0920434 15.1188Z" fill="white"/>
<path d="M204.189 34.6282C205.236 33.462 206.276 32.2785 207.331 31.1294C211.903 26.1513 216.493 21.1946 221.046 16.1821C221.667 15.4364 222.464 15.0392 223.282 15.0673C225.037 15.1273 226.795 15.0287 228.547 15.1231C229.135 15.1418 229.706 15.398 230.192 15.8606C235.678 21.6891 241.144 27.5491 246.591 33.4405C246.962 33.8393 247.3 34.2981 247.938 35.057C245.011 35.057 242.452 35.1213 239.899 35.0013C239.378 34.9798 238.819 34.3538 238.365 33.8436C234.305 29.2099 230.254 24.5548 226.212 19.8782C226.047 19.6853 225.875 19.4966 225.553 19.1321C224.215 20.6286 222.865 22.1336 221.524 23.6429C218.456 27.1032 215.388 30.5463 212.36 34.0494C211.79 34.7616 211.044 35.1354 210.28 35.0913C208.279 35.0184 206.276 35.0656 204.272 35.0656L204.189 34.6282Z" fill="white"/>
<path d="M139.627 31.1423V15.2088C141.509 15.0508 143.395 15.0279 145.279 15.1402C145.325 15.9034 145.395 16.5552 145.395 17.2069C145.407 21.5748 145.407 25.944 145.395 30.3147C145.395 33.1575 144.828 34.1394 142.803 34.7011C141.942 34.9324 141.068 35.0487 140.192 35.0485C134.362 35.0785 128.554 35.0913 122.737 35.0485C121.642 35.0273 120.552 34.8462 119.485 34.5082C118.362 34.1652 117.583 33.0203 117.561 31.4338C117.488 26.0912 117.534 20.7444 117.534 15.2474H123.249V31.1508L139.627 31.1423Z" fill="white"/>
<path d="M198.906 50C197.811 47.8004 197.489 45.3778 197.173 43.0023C196.742 40.0778 196.448 37.1173 196.292 34.1394C195.939 25.1093 195.85 16.075 197.16 7.12632C197.51 4.74659 197.869 2.36258 198.872 0.0686063C199.839 1.69368 200.14 3.46454 200.431 5.21396C201.618 12.2674 201.864 19.4452 201.818 26.6529C201.781 32.8745 201.444 39.049 200.391 45.1119C200.097 46.797 199.827 48.5121 198.906 50Z" fill="white"/>
<path d="M50.9584 0C51.9586 1.74085 52.2808 3.50742 52.5753 5.2697C53.9437 13.4637 54.0848 21.7949 53.8977 30.1389C53.8334 35.123 53.3839 40.0828 52.5569 44.9318C52.2501 46.6126 51.7715 48.2334 51.3726 49.8799L50.9615 49.9271C50.614 48.9696 50.3066 47.9846 50.041 46.9771C49.072 42.5012 48.5203 37.8693 48.3996 33.1961C48.1572 26.4686 48.0253 19.7196 48.6788 13.0178C48.9856 9.7676 49.5041 6.55175 50.0073 3.34448C50.1576 2.25538 50.581 1.26919 50.9584 0Z" fill="white"/>
<path d="M84.3886 15.2431V18.6048C80.6578 18.7505 76.9576 18.579 73.0703 18.7119V34.937H67.2992V18.7248H56.0484V15.2431H84.3886Z" fill="white"/>
</svg>
