<svg width="29" height="28" viewBox="0 0 29 28" fill="none" xmlns="http://www.w3.org/2000/svg">
<g id="fluent:person-suport-32-light">
<g id="Vector">
<path d="M7.875 9.62501C7.875 7.76849 8.6125 5.98802 9.92525 4.67526C11.238 3.36251 13.0185 2.62501 14.875 2.62501C16.7315 2.62501 18.512 3.36251 19.8247 4.67526C21.1375 5.98802 21.875 7.76849 21.875 9.62501C21.875 9.74104 21.9211 9.85232 22.0031 9.93437C22.0852 10.0164 22.1965 10.0625 22.3125 10.0625C22.4285 10.0625 22.5398 10.0164 22.6219 9.93437C22.7039 9.85232 22.75 9.74104 22.75 9.62501C22.7498 8.13602 22.3274 6.67761 21.5319 5.41893C20.7364 4.16026 19.6003 3.15291 18.2555 2.51373C16.9107 1.87454 15.4122 1.62972 13.9339 1.80766C12.4556 1.9856 11.058 2.579 9.90329 3.51904C8.74855 4.45908 7.88399 5.70724 7.40988 7.11873C6.93576 8.53022 6.87153 10.0472 7.22463 11.4937C7.57773 12.9402 8.3337 14.257 9.40483 15.2913C10.476 16.3256 11.8184 17.035 13.2764 17.3373C13.4487 17.7236 13.7551 18.0345 14.139 18.2124C14.5228 18.3903 14.9581 18.423 15.3643 18.3047C15.7705 18.1863 16.12 17.9248 16.3482 17.5686C16.5764 17.2123 16.6679 16.7855 16.6056 16.367C16.5434 15.9486 16.3316 15.5668 16.0096 15.2925C15.6876 15.0181 15.277 14.8697 14.854 14.8747C14.431 14.8797 14.0241 15.0378 13.7086 15.3197C13.3931 15.6016 13.1905 15.9882 13.1381 16.408C11.6322 16.0223 10.2975 15.1463 9.34458 13.9181C8.39162 12.69 7.87458 11.1795 7.875 9.62501ZM14.875 5.25001C13.7147 5.25001 12.6019 5.71094 11.7814 6.53142C10.9609 7.35189 10.5 8.46469 10.5 9.62501C10.5 10.7853 10.9609 11.8981 11.7814 12.7186C12.6019 13.5391 13.7147 14 14.875 14C14.2389 14 13.6561 14.2266 13.2011 14.6029C12.0207 14.2059 11.0198 13.4022 10.3772 12.3354C9.7347 11.2685 9.49235 10.0079 9.69348 8.77888C9.8946 7.54982 10.5261 6.43227 11.4752 5.62587C12.4243 4.81947 13.6291 4.37673 14.8746 4.37673C16.12 4.37673 17.3248 4.81947 18.2739 5.62587C19.223 6.43227 19.8545 7.54982 20.0556 8.77888C20.2568 10.0079 20.0144 11.2685 19.3719 12.3354C18.7293 13.4022 17.7285 14.2059 16.548 14.6029C16.0775 14.2134 15.4858 14.0002 14.875 14C16.0353 14 17.1481 13.5391 17.9686 12.7186C18.7891 11.8981 19.25 10.7853 19.25 9.62501C19.25 8.46469 18.7891 7.35189 17.9686 6.53142C17.1481 5.71094 16.0353 5.25001 14.875 5.25001ZM22.3125 16.625H17.5C17.5 16.3188 17.4475 16.0239 17.3512 15.75H22.3125C23.1247 15.75 23.9037 16.0727 24.478 16.647C25.0523 17.2213 25.375 18.0003 25.375 18.8125V19.3961C25.375 21.2774 22.9548 26.25 14.875 26.25C6.79525 26.25 4.375 21.2765 4.375 19.3961V18.8125C4.375 18.0003 4.69766 17.2213 5.27199 16.647C5.84632 16.0727 6.62527 15.75 7.4375 15.75H8.62663C8.93696 16.0668 9.26946 16.3584 9.62412 16.625H7.4375C6.85734 16.625 6.30094 16.8555 5.8907 17.2657C5.48047 17.6759 5.25 18.2323 5.25 18.8125V19.3961C5.25 20.7235 7.20475 25.375 14.875 25.375C22.5452 25.375 24.5 20.7235 24.5 19.3961V18.8125C24.5 18.2323 24.2695 17.6759 23.8593 17.2657C23.4491 16.8555 22.8927 16.625 22.3125 16.625Z" fill="white"/>
<path d="M14.875 14C13.7147 14 12.6019 13.5391 11.7814 12.7186C10.9609 11.8981 10.5 10.7853 10.5 9.62501C10.5 8.46469 10.9609 7.35189 11.7814 6.53142C12.6019 5.71094 13.7147 5.25001 14.875 5.25001C16.0353 5.25001 17.1481 5.71094 17.9686 6.53142C18.7891 7.35189 19.25 8.46469 19.25 9.62501C19.25 10.7853 18.7891 11.8981 17.9686 12.7186C17.1481 13.5391 16.0353 14 14.875 14ZM14.875 14C14.2389 14 13.6561 14.2266 13.2011 14.6029C12.0207 14.2059 11.0198 13.4022 10.3772 12.3354C9.7347 11.2685 9.49235 10.0079 9.69348 8.77888C9.8946 7.54982 10.5261 6.43227 11.4752 5.62587C12.4243 4.81947 13.6291 4.37673 14.8746 4.37673C16.12 4.37673 17.3248 4.81947 18.2739 5.62587C19.223 6.43227 19.8545 7.54982 20.0556 8.77888C20.2568 10.0079 20.0144 11.2685 19.3719 12.3354C18.7293 13.4022 17.7285 14.2059 16.548 14.6029C16.0775 14.2134 15.4858 14.0002 14.875 14ZM7.875 9.62501C7.875 7.76849 8.6125 5.98802 9.92525 4.67526C11.238 3.36251 13.0185 2.62501 14.875 2.62501C16.7315 2.62501 18.512 3.36251 19.8247 4.67526C21.1375 5.98802 21.875 7.76849 21.875 9.62501C21.875 9.74104 21.9211 9.85232 22.0031 9.93437C22.0852 10.0164 22.1965 10.0625 22.3125 10.0625C22.4285 10.0625 22.5398 10.0164 22.6219 9.93437C22.7039 9.85232 22.75 9.74104 22.75 9.62501C22.7498 8.13602 22.3274 6.67761 21.5319 5.41893C20.7364 4.16026 19.6003 3.15291 18.2555 2.51373C16.9107 1.87454 15.4122 1.62972 13.9339 1.80766C12.4556 1.9856 11.058 2.579 9.90329 3.51904C8.74855 4.45908 7.88399 5.70724 7.40988 7.11873C6.93576 8.53022 6.87153 10.0472 7.22463 11.4937C7.57773 12.9402 8.3337 14.257 9.40483 15.2913C10.476 16.3256 11.8184 17.035 13.2764 17.3373C13.4487 17.7236 13.7551 18.0345 14.139 18.2124C14.5228 18.3903 14.9581 18.423 15.3643 18.3047C15.7705 18.1863 16.12 17.9248 16.3482 17.5686C16.5764 17.2123 16.6679 16.7855 16.6056 16.367C16.5434 15.9486 16.3316 15.5668 16.0096 15.2925C15.6876 15.0181 15.277 14.8697 14.854 14.8747C14.431 14.8797 14.0241 15.0378 13.7086 15.3197C13.3931 15.6016 13.1905 15.9882 13.1381 16.408C11.6322 16.0223 10.2975 15.1463 9.34458 13.9181C8.39162 12.69 7.87458 11.1795 7.875 9.62501ZM22.3125 16.625H17.5C17.5 16.3188 17.4475 16.0239 17.3512 15.75H22.3125C23.1247 15.75 23.9037 16.0727 24.478 16.647C25.0523 17.2213 25.375 18.0003 25.375 18.8125V19.3961C25.375 21.2774 22.9548 26.25 14.875 26.25C6.79525 26.25 4.375 21.2765 4.375 19.3961V18.8125C4.375 18.0003 4.69766 17.2213 5.27199 16.647C5.84632 16.0727 6.62527 15.75 7.4375 15.75H8.62663C8.93696 16.0668 9.26946 16.3584 9.62412 16.625H7.4375C6.85734 16.625 6.30094 16.8555 5.8907 17.2657C5.48047 17.6759 5.25 18.2323 5.25 18.8125V19.3961C5.25 20.7235 7.20475 25.375 14.875 25.375C22.5452 25.375 24.5 20.7235 24.5 19.3961V18.8125C24.5 18.2323 24.2695 17.6759 23.8593 17.2657C23.4491 16.8555 22.8927 16.625 22.3125 16.625Z" stroke="white" stroke-width="0.5"/>
</g>
</g>
</svg>
