<svg width="29" height="28" viewBox="0 0 29 28" fill="none" xmlns="http://www.w3.org/2000/svg">
<g id="hugeicons:bot">
<g id="Group">
<path id="Vector" d="M4.79171 18.0834C4.17287 18.0834 3.57938 17.8376 3.14179 17.4C2.70421 16.9624 2.45837 16.3689 2.45837 15.7501C2.45837 15.1312 2.70421 14.5378 3.14179 14.1002C3.57938 13.6626 4.17287 13.4167 4.79171 13.4167M23.4584 18.0834C24.0772 18.0834 24.6707 17.8376 25.1083 17.4C25.5459 16.9624 25.7917 16.3689 25.7917 15.7501C25.7917 15.1312 25.5459 14.5378 25.1083 14.1002C24.6707 13.6626 24.0772 13.4167 23.4584 13.4167M8.29171 8.16675V4.66675M19.9584 8.16675V4.66675" stroke="white" stroke-width="1.5" stroke-linecap="round" stroke-linejoin="round"/>
<path id="Vector_2" d="M8.29167 4.66671C8.936 4.66671 9.45833 4.14437 9.45833 3.50004C9.45833 2.85571 8.936 2.33337 8.29167 2.33337C7.64733 2.33337 7.125 2.85571 7.125 3.50004C7.125 4.14437 7.64733 4.66671 8.29167 4.66671Z" stroke="white" stroke-width="1.5" stroke-linecap="round" stroke-linejoin="round"/>
<path id="Vector_3" d="M19.9584 4.66671C20.6027 4.66671 21.1251 4.14437 21.1251 3.50004C21.1251 2.85571 20.6027 2.33337 19.9584 2.33337C19.3141 2.33337 18.7917 2.85571 18.7917 3.50004C18.7917 4.14437 19.3141 4.66671 19.9584 4.66671Z" stroke="white" stroke-width="1.5" stroke-linecap="round" stroke-linejoin="round"/>
<path id="Vector_4" d="M15.875 8.16675H12.375C9.07567 8.16675 7.42483 8.16675 6.4005 9.22725C5.37617 10.2877 5.375 11.9946 5.375 15.4082C5.375 18.8219 5.375 20.5287 6.4005 21.5892C7.42483 22.6497 9.07567 22.6497 12.375 22.6497H13.5708C14.4948 22.6497 14.8203 22.8399 15.4573 23.5329C16.1608 24.2994 17.2505 25.3226 18.2363 25.5606C19.6375 25.8989 19.795 25.4311 19.4823 24.0952C19.3937 23.7149 19.1708 23.1071 19.4053 22.7524C19.5372 22.5541 19.7553 22.5051 20.1928 22.4071C20.8823 22.2531 21.4517 22.0011 21.8495 21.5892C22.875 20.5276 22.875 18.8219 22.875 15.4082C22.875 11.9946 22.875 10.2877 21.8495 9.22725C20.8252 8.16675 19.1743 8.16675 15.875 8.16675Z" stroke="white" stroke-width="1.5" stroke-linecap="round" stroke-linejoin="round"/>
<path id="Vector_5" d="M11.2083 17.5C11.8733 18.2082 12.9327 18.6667 14.125 18.6667C15.3173 18.6667 16.3767 18.2082 17.0417 17.5M10.6355 12.8334H10.625M17.6355 12.8334H17.625" stroke="white" stroke-width="1.5" stroke-linecap="round" stroke-linejoin="round"/>
</g>
</g>
</svg>
