<svg width="29" height="28" viewBox="0 0 29 28" fill="none" xmlns="http://www.w3.org/2000/svg">
<g id="oui:app-monitoring">
<path id="Vector" d="M4.06512 13.4185C3.73522 13.6665 3.26253 13.6003 3.0546 13.2437C2.30991 11.9669 1.99599 10.4715 2.17341 8.98627C2.38068 7.25125 3.24249 5.66404 4.57917 4.55557C5.91586 3.44709 7.62425 2.9029 9.34817 3.03645C11.0721 3.17 12.6785 3.97099 13.8324 5.27241L14.1177 5.59106L14.4029 5.27241C15.521 4.003 17.07 3.20419 18.743 3.03407C20.4161 2.86396 22.0913 3.33496 23.4372 4.35383C24.7831 5.3727 25.7015 6.86518 26.0106 8.53585C26.2728 9.9529 26.0805 11.4105 25.4726 12.7002C25.2923 13.0825 24.8148 13.1897 24.4581 12.9628C24.1095 12.7411 24.0083 12.2826 24.1718 11.9031C24.5879 10.9375 24.7101 9.86196 24.5131 8.8161C24.2699 7.52463 23.5575 6.37185 22.516 5.58442C21.4744 4.79698 20.1791 4.43187 18.8848 4.56086C17.5904 4.68985 16.3906 5.30361 15.5213 6.28147L14.1177 7.87474L12.714 6.28147C11.8252 5.24227 10.5698 4.59532 9.21566 4.47868C7.86152 4.36203 6.51589 4.78493 5.46593 5.65713C4.41596 6.52934 3.74479 7.78177 3.59565 9.14719C3.47405 10.2605 3.70732 11.3769 4.25097 12.3382C4.45512 12.6991 4.39659 13.1694 4.06512 13.4185ZM14.861 25.1739C14.4638 25.6154 13.7716 25.6154 13.3743 25.1739L8.80747 20.0985C8.53096 19.7912 8.55389 19.3185 8.85885 19.0394C9.16742 18.757 9.647 18.7802 9.92685 19.0911L14.1177 23.7467L18.3085 19.0911C18.5883 18.7802 19.0679 18.757 19.3765 19.0394C19.6814 19.3185 19.7044 19.7912 19.4279 20.0985L14.861 25.1739Z" fill="white"/>
<path id="Vector_2" d="M15.0121 18.1112C14.6994 18.8812 13.6384 18.9558 13.221 18.2372L11.17 14.7067L10.3679 16.2858C10.1974 16.6214 9.85283 16.8329 9.47634 16.8329H2.86325C2.45553 16.8329 2.125 16.5024 2.125 16.0946C2.125 15.6869 2.45553 15.3564 2.86325 15.3564H9.16L10.2467 13.217C10.6058 12.5101 11.6054 12.4823 12.0033 13.1681L14.005 16.6188L16.2077 11.2009C16.5412 10.3807 17.6975 10.3665 18.0509 11.1783L19.87 15.3564H25.3867C25.7945 15.3564 26.125 15.6869 26.125 16.0946C26.125 16.5024 25.7945 16.8329 25.3867 16.8329H19.5353C19.1373 16.8329 18.7773 16.5969 18.6184 16.2321L17.1475 12.8537L15.0121 18.1112Z" fill="white"/>
</g>
</svg>
