<svg width="29" height="29" viewBox="0 0 29 29" fill="none" xmlns="http://www.w3.org/2000/svg">
<g id="stash:location">
<path id="Vector" d="M17.5 18.9998C17.5 16.6361 19.4997 14.7916 21.875 14.7916C24.2503 14.7916 26.25 16.635 26.25 18.9998C26.25 20.9621 25.2292 22.6561 24.3063 23.7995C23.7897 24.4373 23.2131 25.0241 22.5843 25.5518L22.4583 25.6545L22.4233 25.6825L22.4117 25.6918L22.4082 25.6941H22.407L21.3897 25.728L21.3873 25.7256L21.3838 25.7233L21.3722 25.7151L21.3337 25.6895L21.2042 25.5961C20.5615 25.1105 19.975 24.5549 19.4553 23.9395C18.5103 22.8125 17.5012 21.1185 17.5012 18.9998M21.3897 25.728L21.91 26.0745L22.407 25.6965L21.3897 25.728ZM21.8493 23.8706C22.1515 23.5906 22.5493 23.1905 22.946 22.7005C23.7732 21.6761 24.5012 20.3706 24.5012 18.9998C24.5012 17.6815 23.3672 16.5416 21.8762 16.5416C20.3863 16.5416 19.2512 17.6815 19.2512 18.9998C19.2512 20.548 19.992 21.8546 20.797 22.8125C21.1178 23.1938 21.4698 23.5477 21.8493 23.8706ZM21.875 19.4583C21.9524 19.4583 22.0265 19.4276 22.0812 19.3729C22.1359 19.3182 22.1667 19.244 22.1667 19.1666C22.1667 19.0893 22.1359 19.0151 22.0812 18.9604C22.0265 18.9057 21.9524 18.875 21.875 18.875C21.7976 18.875 21.7235 18.9057 21.6688 18.9604C21.6141 19.0151 21.5833 19.0893 21.5833 19.1666C21.5833 19.244 21.6141 19.3182 21.6688 19.3729C21.7235 19.4276 21.7976 19.4583 21.875 19.4583ZM20.4167 19.1666C20.4167 18.7799 20.5703 18.4089 20.8438 18.1354C21.1173 17.8619 21.4882 17.7083 21.875 17.7083C22.2618 17.7083 22.6327 17.8619 22.9062 18.1354C23.1797 18.4089 23.3333 18.7799 23.3333 19.1666C23.3333 19.5534 23.1797 19.9243 22.9062 20.1978C22.6327 20.4713 22.2618 20.625 21.875 20.625C21.4882 20.625 21.1173 20.4713 20.8438 20.1978C20.5703 19.9243 20.4167 19.5534 20.4167 19.1666Z" fill="white"/>
<path id="Vector_2" fill-rule="evenodd" clip-rule="evenodd" d="M12.5417 4.875C11.0215 4.875 9.82685 6.072 9.82685 7.5C9.82685 8.928 11.0203 10.125 12.5417 10.125C14.063 10.125 15.2577 8.928 15.2577 7.5C15.2577 6.072 14.063 4.875 12.5417 4.875ZM8.07685 7.5C8.07685 5.06167 10.0975 3.125 12.544 3.125C14.9893 3.125 17.01 5.06167 17.01 7.5C17.01 9.93833 14.9893 11.875 12.544 11.875C10.0987 11.875 8.07335 9.93833 8.07335 7.5M9.59001 14.4603C9.37651 14.3238 9.21668 14.3157 9.14201 14.3355C8.97401 14.3822 8.80718 14.4319 8.64151 14.4848L7.49351 14.8523C7.10022 14.9734 6.74057 15.1845 6.44308 15.4689C6.14559 15.7532 5.91845 16.1029 5.77968 16.4903C5.74861 16.5937 5.72867 16.7001 5.72018 16.8077L5.26401 21.1232L5.26168 21.1383C5.17418 21.7532 5.50201 22.2233 6.00018 22.34C7.25668 22.6317 9.37301 22.9583 12.5405 22.9583C12.7726 22.9583 12.9951 23.0505 13.1592 23.2146C13.3233 23.3787 13.4155 23.6013 13.4155 23.8333C13.4155 24.0654 13.3233 24.288 13.1592 24.4521C12.9951 24.6161 12.7726 24.7083 12.5405 24.7083C9.25285 24.7083 7.00235 24.3677 5.60468 24.0433C4.10085 23.6945 3.33901 22.2817 3.52685 20.9085L3.97951 16.6233C4.00051 16.4227 4.03785 16.1742 4.12651 15.9187C4.35405 15.2745 4.7285 14.6923 5.22018 14.218C5.71187 13.7437 6.30726 13.3905 6.95918 13.1863L8.10835 12.8177C8.29735 12.7578 8.48712 12.7014 8.67768 12.6485C9.39051 12.4525 10.0683 12.687 10.5397 12.9915C10.9713 13.2715 11.676 13.6087 12.5405 13.6087C13.4038 13.6087 14.1085 13.2703 14.5402 12.9903C15.0103 12.687 15.6893 12.4525 16.4022 12.6485C16.5927 12.7014 16.7825 12.7578 16.9715 12.8177L18.1207 13.1863C18.2324 13.2195 18.3363 13.2746 18.4264 13.3485C18.5164 13.4224 18.5909 13.5135 18.6453 13.6165C18.6997 13.7195 18.733 13.8324 18.7432 13.9484C18.7534 14.0645 18.7403 14.1814 18.7047 14.2923C18.6691 14.4033 18.6118 14.506 18.536 14.5944C18.4602 14.6829 18.3675 14.7554 18.2633 14.8075C18.1591 14.8597 18.0456 14.8905 17.9293 14.8982C17.8131 14.9059 17.6965 14.8903 17.5863 14.8523L16.4383 14.4848C16.2722 14.4317 16.1049 14.3819 15.9367 14.3355C15.8632 14.3157 15.7033 14.3238 15.491 14.4603C14.8925 14.8477 13.8577 15.3587 12.5393 15.3587C11.221 15.3587 10.1885 14.8477 9.59001 14.4603Z" fill="white"/>
</g>
</svg>
