<svg width="29" height="28" viewBox="0 0 29 28" fill="none" xmlns="http://www.w3.org/2000/svg">
<g id="game-icons:bugle-call">
<path id="Vector" d="M19.1622 2L18.1808 6.48687L21.7832 2H19.1622ZM26.875 2.9381L20.7699 9.59476L26.875 7.18972V2.9381ZM11.2521 5.20197C11.2188 5.20247 11.1861 5.20368 11.1533 5.20513C10.6684 5.22632 10.2167 5.33742 9.84368 5.58632C8.97881 6.16326 9.26783 7.45168 8.6823 8.75385C6.68175 13.2027 4.66081 16.4292 2.875 18.8102V24C6.0146 22.9284 10.6907 21.818 17.5244 21.5949C18.9583 21.5482 20.0597 22.2266 20.9195 21.653C23.0423 20.237 22.2738 15.5047 19.2229 11.0695C19.0322 10.7924 18.8546 10.5103 18.6556 10.249C16.2696 7.11502 13.3471 5.17431 11.252 5.20207L11.2521 5.20197ZM10.978 6.43195C10.6336 7.12942 10.957 8.63387 11.7906 10.4859C11.5275 9.55078 11.5516 8.87223 11.9276 8.64717C12.7497 8.15508 14.9383 10.0114 16.8155 12.7937C18.6927 15.5758 19.5478 18.2302 18.7258 18.7223C18.3876 18.9247 17.8178 18.7293 17.1342 18.236C18.5472 19.6463 19.8227 20.4705 20.6057 20.4276C20.5147 20.5868 20.4184 20.7411 20.2744 20.8372C18.9029 21.7521 15.5965 19.3185 12.8995 15.398C10.2024 11.4774 9.13339 7.54917 10.5048 6.63432C10.6454 6.54064 10.7997 6.4573 10.978 6.43195ZM26.875 12.2336L22.5574 13.611L26.875 14.2558V12.2336Z" fill="white"/>
</g>
</svg>
